<?xml version="1.0" encoding="utf-8"?>
<!-- Generator: Adobe Illustrator 16.0.3, SVG Export Plug-In . SVG Version: 6.00 Build 0)  -->
<!DOCTYPE svg PUBLIC "-//W3C//DTD SVG 1.1//EN" "http://www.w3.org/Graphics/SVG/1.1/DTD/svg11.dtd">
<svg version="1.1" xmlns="http://www.w3.org/2000/svg" xmlns:xlink="http://www.w3.org/1999/xlink" x="0px" y="0px"
	 width="510.236px" height="510.236px" viewBox="0 0 510.236 510.236" enable-background="new 0 0 510.236 510.236"
	 xml:space="preserve">
<g id="台灣">
	<path d="M171.645,363.549c4.371,8.74,8.013,16.025,10.32,20.153c2.306,4.129,3.278,5.099,4.249,6.435
		c0.971,1.334,1.942,3.035,2.428,4.248c0.486,1.215,0.486,1.942,0.364,2.308c-0.122,0.364-0.364,0.364-1.093,0.606
		c-0.729,0.244-1.943,0.729-2.307,1.701c-0.364,0.971,0.121,2.427,1.578,4.613c1.457,2.185,3.885,5.099,5.585,7.041
		c1.7,1.942,2.67,2.914,3.642,3.886c0.972,0.969,1.942,1.94,2.732,2.73c0.789,0.788,1.396,1.396,1.639,1.882
		c0.243,0.486,0.122,0.849-0.061,1.032c-0.182,0.182-0.425,0.182-1.153-0.242c-0.729-0.427-1.943-1.275-2.55-1.579
		c-0.607-0.305-0.607-0.061-0.607,0.243c0,0.305,0,0.667,0.728,1.273c0.729,0.609,2.186,1.457,3.4,1.883
		c1.214,0.425,2.186,0.425,2.914,0.606c0.729,0.184,1.215,0.546,2.186,1.213c0.971,0.67,2.428,1.641,4.128,2.612
		c1.699,0.972,3.641,1.942,5.098,2.67c1.457,0.729,2.428,1.216,3.157,1.216c0.729,0,1.213-0.486,1.7-1.216
		c0.486-0.728,0.971-1.698,1.457-1.942c0.485-0.242,0.971,0.244,1.457,0.974c0.486,0.728,0.971,1.698,1.457,2.426
		c0.485,0.729,0.972,1.216,1.7,1.701c0.729,0.485,1.699,0.972,2.914,1.578c1.214,0.606,2.67,1.334,4.127,2.791
		c7.285,7.285,13.112,12.384,16.511,15.177c3.399,2.792,4.371,3.277,4.856,3.763c0.485,0.486,0.485,0.972,1.579,3.035
		c1.091,2.063,3.276,5.707,9.104,14.448c1.457,2.914,1.457,3.642,1.215,4.735c-0.243,1.093-0.728,2.55-1.215,4.248
		c-0.484,1.699-0.97,3.642-1.215,4.855c-0.24,1.215-0.24,1.7,0.245,2.672s1.457,2.429,3.033,4.369
		c1.58,1.942,3.764,4.373,5.101,6.679c1.335,2.308,1.819,4.492,2.55,5.584c0.728,1.093,1.699,1.093,2.184,0.486
		c0.486-0.606,0.486-1.822,0.607-3.156c0.122-1.336,0.364-2.793,0.729-3.521c0.364-0.728,0.849-0.728,1.456-0.365
		c0.607,0.365,1.335,1.093,4.249,4.005c4.37,1.459,4.37,2.916,4.492,4.129c0.121,1.216,0.363,2.187,0.85,2.673
		c0.485,0.483,1.216,0.483,1.578,0.241c0.365-0.241,0.365-0.728,0.607-2.185c0.243-1.457,0.729-3.885,0.729-5.828
		c0-1.942-0.485-3.397-0.363-5.949c0.121-2.549,0.85-6.19,0.85-9.104c0-1.457,2.184-3.642,3.277-4.979
		c1.093-1.336,1.093-1.821,0.607-2.305c-0.486-0.486-1.458-0.972-2.187-1.945c-0.728-0.969-1.214-2.426-1.092-6.07
		c0.121-3.642,0.851-9.468-0.606-16.753c-1.457-4.371-0.729-7.283-0.365-10.197c0.365-2.914,0.365-5.828,1.093-8.013
		c0.729-2.187,2.186-3.644,3.399-5.828s2.185-5.099,2.428-7.283c0.243-2.187-0.243-3.644,0.243-6.07
		c0.485-2.431,1.943-5.828,2.671-8.5c0.729-2.669,0.729-4.613,1.942-7.283c1.213-2.671,3.643-6.07,8.498-11.898
		c4.857-5.828,12.142-14.083,16.026-18.696s4.37-5.584,4.37-6.556s-0.485-1.942-0.728-3.158c-0.244-1.213-0.244-2.67,0.728-3.397
		c0.971-0.729,2.914-0.729,4.371-0.729c1.456,0,2.43,0,3.157-0.485c0.729-0.486,1.214-1.457,3.397-5.341
		c2.187-3.886,6.071-10.686,9.471-16.025c3.399-5.343,6.313-9.227,7.284-11.898c0.972-2.673,0-4.128-0.486-5.585
		c-0.485-1.457-0.485-2.914-0.728-4.612c-0.243-1.699-0.729-3.644-0.486-5.101c0.243-1.457,1.214-2.429,2.915-6.798
		c1.699-4.371,4.127-12.141,5.341-16.753c1.215-4.613,1.215-6.072,0.972-7.529c-0.243-1.455-0.729-2.914-0.729-3.884
		c0-0.972,0.485-1.457,0.972-2.187c0.484-0.728,0.971-1.699,1.215-2.67c0.241-0.972,0.241-1.943-0.487-3.521
		c-0.728-1.577-2.185-3.762-2.185-5.221c0-2.913,1.457-3.64,2.185-4.734c0.729-1.093,0.729-2.55,1.459-7.164
		c0.727-4.613,2.185-12.383,3.155-18.939c0.972-6.556,1.457-11.898,1.943-15.783c0.484-3.885,0.971-6.313,1.456-8.983
		c0.485-2.671,0.971-5.585,1.941-8.256c0.972-2.67,2.429-5.099,3.157-6.556c0.729-1.457,0.729-1.942,0.486-2.914
		s-0.729-2.428-0.972-3.885c-0.243-1.456-0.243-2.913,0-4.37c0.242-1.457,0.729-2.913,1.456-4.856
		c0.729-1.943,1.699-4.371,2.186-5.828c0.485-1.457,0.485-1.942,0-3.157c-0.486-1.213-1.457-3.156-1.699-4.127
		c-0.243-0.972,0.242-0.972,2.67-2.671c2.43-1.7,6.8-5.099,8.984-7.042c2.187-1.942,2.187-2.428,1.943-3.643
		c-0.243-1.213-0.729-3.156-0.729-4.613s0.485-2.428,1.215-4.127c0.728-1.7,1.698-4.128,3.154-6.556
		c1.458-2.427,3.4-4.856,4.371-7.041c0.971-2.186,0.971-4.128,1.457-5.584c0.486-1.457,1.458-2.429,1.943-4.128
		s0.485-4.127,1.213-6.313c0.73-2.186,2.186-4.128,2.915-5.342c0.728-1.213,0.728-1.7,0.485-1.942
		c-0.243-0.243-0.728-0.243-2.185-1.699c-1.457-1.457-3.886-4.371-5.343-6.071c-1.457-1.699-1.943-2.186-2.185-2.671
		c-0.243-0.485-0.243-0.971-0.487-2.428c-0.242-1.457-0.728-3.885-0.97-6.313c-0.243-2.428-0.243-4.856-0.487-6.313
		c-0.241-1.457-0.729-1.942-0.485-3.156c0.244-1.214,1.215-3.157,1.942-4.856c0.729-1.7,1.215-3.156,1.943-5.099
		c0.729-1.943,1.699-4.371,3.399-7.042c1.7-2.671,4.129-5.584,5.827-7.526c1.699-1.943,2.672-2.915,3.642-3.4
		c0.972-0.486,1.943-0.486,2.915-0.728c0.971-0.244,1.943-0.729,2.428-1.215c0.485-0.486,0.485-0.971,0.243-1.699
		c-0.243-0.729-0.728-1.701-1.7-2.428c-0.971-0.729-2.429-1.215-3.642-1.458c-1.214-0.243-2.187-0.243-2.915-1.213
		c-0.728-0.972-1.213-2.914-2.185-4.614s-2.427-3.156-4.128-3.885c-1.699-0.729-3.643-0.729-5.341-0.971
		c-1.7-0.243-3.157-0.729-4.614-1.214c-1.456-0.485-2.914-0.971-4.128-1.456c-1.214-0.486-2.185-0.972-3.643-1.214
		c-1.456-0.244-3.399-0.244-5.099-0.486c-1.699-0.243-3.156-0.729-4.128-1.457c-0.973-0.729-1.457-1.699-2.791-2.913
		c-1.337-1.214-3.521-2.671-4.979-5.585c-7.284-1.457-7.284-2.185-7.77-3.763c-0.486-1.578-1.457-4.007-2.672-5.706
		c-1.213-1.699-2.671-2.671-4.613-2.914c-1.941-0.242-4.369,0.243-7.041,1.7c-2.672,1.458-5.585,3.885-8.257,5.827
		c-2.669,1.943-5.099,3.4-6.555,5.099c-1.457,1.7-1.941,3.643-2.428,5.1c-0.486,1.457-0.973,2.428-1.458,3.156
		s-0.971,1.214-2.669,2.186c-1.701,0.972-4.614,2.428-7.043,3.399c-2.428,0.971-4.37,1.457-7.77,2.186
		c-3.4,0.728-8.256,1.699-10.928,2.671c-2.67,0.971-3.156,1.942-5.584,3.884c-2.428,1.943-6.798,4.856-9.47,6.556
		c-2.671,1.701-3.642,2.185-5.099,3.157c-1.457,0.971-3.399,2.428-5.343,4.371c-1.941,1.942-3.883,4.371-5.826,7.041
		c-1.943,2.671-3.886,5.585-6.07,8.013s-4.614,4.371-5.829,7.041c-1.213,2.671-1.213,6.07-1.456,8.741
		c-0.243,2.671-0.729,4.613-0.97,6.313c-0.245,1.699-0.245,3.156-0.73,4.127c-0.484,0.971-1.456,1.457-2.67,3.156
		c-1.214,1.701-2.67,4.614-4.127,6.313s-2.914,2.186-4.371,2.428c-1.457,0.243-2.914,0.243-4.127,0.971
		c-1.215,0.729-2.186,2.185-4.128,4.371c-1.942,2.186-4.856,5.099-6.313,8.013c-4.371,8.741-7.284,13.84-10.198,18.817
		c-2.914,4.978-5.828,9.835-7.527,13.234c-1.701,3.399-2.186,5.341-3.158,8.013c-0.971,2.671-2.427,6.07-4.127,8.741
		c-1.699,2.671-3.642,4.614-5.584,8.013s-3.885,8.256-5.342,11.413c-1.457,3.156-2.427,4.613-3.642,6.313
		c-1.214,1.699-2.67,3.642-4.127,5.584c-1.457,1.942-2.914,3.885-4.613,6.556c-1.701,2.671-3.643,6.071-4.979,9.955
		c-1.335,3.886-2.063,8.256-6.434,12.626c-5.828,7.284-8.013,10.927-10.077,14.933c-2.064,4.007-4.006,8.377-5.221,12.262
		c-1.214,3.886-1.7,7.285-1.942,10.441c-0.243,3.158-0.243,6.07,0,8.498c0.243,2.429,0.729,4.369,0.971,6.313
		c0.244,1.942,0.244,3.886,0.244,6.556c0,2.672,0,6.072-0.244,8.984c-0.242,2.914-0.728,5.342-1.213,8.5
		c-0.485,3.156-0.971,7.04-1.7,11.169c-0.729,4.127-1.7,8.496-2.428,11.169c-0.729,2.672-1.214,3.642-1.214,4.371
		c0,0.728,0.486,1.213,0.971,1.699c0.485,0.485,0.972,0.971,1.214,3.155c0.243,2.185,0.243,6.07,0.728,8.501
		c0.487,2.426,1.458,3.397,4.493,6.433C160.717,351.165,165.817,356.264,171.645,363.549z"/>
</g>
<g id="離島">
	<path d="M361.037,389.53c-0.485-0.244-0.972-0.729-1.214-1.216c-0.243-0.483-0.243-0.971-0.13-1.203
		c0.114-0.232,0.34-0.209,0.825,0.033c0.486,0.242,1.231,0.706,1.847,0.696c0.614-0.01,1.101-0.497,1.586-0.618
		s0.972,0.121,1.458,0.121c0.484,0,0.971-0.242,1.456-0.363c0.485-0.123,0.971-0.123,1.214,0c0.243,0.121,0.243,0.363,0.485,0.851
		c0.242,0.483,0.729,1.213,0.729,1.578c0,0.362-0.486,0.362-0.729,0.606c-0.242,0.242-0.242,0.728-0.607,1.336
		c-0.362,0.604-1.092,1.334-1.334,1.82c-0.243,0.485,0,0.729,0.363,1.213c0.364,0.485,0.85,1.215,0.971,1.58
		c0.122,0.362-0.121,0.362-0.606,0.242c-0.485-0.121-1.215-0.365-1.821-0.728c-0.606-0.365-1.093-0.851-1.214-1.337
		c-0.122-0.485,0.121-0.971-0.242-0.971c-0.365,0-1.337,0.485-1.943,0.606c-0.606,0.123-0.85-0.121-0.729-0.849
		c0.122-0.729,0.607-1.942,0.607-2.549C362.009,389.771,361.523,389.771,361.037,389.53z"/>
	<path d="M58.252,276.865c0.243-0.486,0.728-0.242,1.335-0.486c0.607-0.241,1.336-0.971,1.943-1.336
		c0.606-0.364,1.092-0.364,1.335-0.241c0.243,0.122,0.243,0.362,0.364,0.848c0.122,0.488,0.365,1.216,0.365,1.457
		c0,0.244-0.243,0-0.729-0.12c-0.486-0.121-1.214-0.121-2.064,0.364c-0.85,0.485-1.821,1.457-2.307,1.336
		C58.009,278.563,58.009,277.351,58.252,276.865z"/>
	<path d="M59.951,273.222c0-0.242-0.243-0.484-0.364-0.484s-0.121,0.242-0.243,0.242s-0.364-0.242-0.607-0.242
		s-0.485,0.242-0.607,0.484c-0.121,0.243-0.121,0.487,0,0.608c0.122,0.121,0.365,0.121,0.607,0.244
		c0.243,0.118,0.485,0.362,0.729,0.485c0.242,0.119,0.485,0.119,0.607,0c0.121-0.123,0.121-0.367,0-0.485
		c-0.122-0.123-0.365-0.123-0.365-0.244S59.951,273.465,59.951,273.222z"/>
	<path d="M60.923,297.868c0-0.364,0-0.849,0.121-0.971c0.121-0.121,0.364,0.122,0.486,0c0.121-0.121,0.121-0.607,0.242-0.851
		c0.122-0.242,0.364-0.242,0.486-0.121s0.122,0.364,0.243,0.485c0.122,0.121,0.365,0.121,0.729,0.242
		c0.365,0.123,0.85,0.366,1.093,0.608c0.243,0.242,0.243,0.485,0.122,0.606s-0.364,0.121-0.607,0s-0.486-0.364-0.729-0.485
		s-0.486-0.121-0.607,0c-0.121,0.121-0.121,0.364-0.243,0.485s-0.364,0.121-0.486,0.244c-0.121,0.119-0.121,0.362-0.121,0.606
		c0,0.242,0,0.483-0.121,0.483c-0.122,0-0.365-0.241-0.486-0.483C60.923,298.475,60.923,298.231,60.923,297.868z"/>
	<path d="M58.495,293.133c-0.243,0-0.729,0.243-0.971,0.243c-0.244,0-0.244-0.243-0.486-0.364s-0.729-0.121-0.85,0.121
		c-0.121,0.243,0.122,0.729,0.243,1.58c0.121,0.848,0.121,2.063,0,2.67c-0.122,0.606-0.364,0.606-0.729,0.972
		c-0.365,0.364-0.85,1.092-0.85,1.457c0,0.362,0.485,0.362,0.85,0.241s0.607-0.364,0.971-0.606c0.365-0.244,0.851-0.485,1.093-0.485
		c0.243,0,0.243,0.241,0.364,0.485c0.122,0.242,0.365,0.485,0.607,0.485s0.485-0.243,0.485-0.485c0-0.244-0.243-0.485-0.364-0.849
		c-0.121-0.366-0.121-0.851,0-1.094c0.122-0.242,0.364-0.242,0.486-0.484c0.122-0.243,0.122-0.729,0-1.215s-0.364-0.972-0.486-1.336
		c-0.121-0.363-0.121-0.606-0.121-0.851C58.737,293.376,58.737,293.133,58.495,293.133z"/>
	<path d="M69.421,233.401c-0.244,0.486,0,1.214,0.242,1.7c0.243,0.485,0.485,0.729,0.971,0.485c0.486-0.243,1.215-0.971,1.7-1.335
		c0.486-0.365,0.729-0.365,0.972-0.607c0.243-0.243,0.485-0.729,0.485-1.093c0-0.364-0.243-0.607-0.607-0.971
		s-0.85-0.85-1.214-0.729c-0.365,0.122-0.607,0.85-1.092,1.336C70.392,232.673,69.664,232.916,69.421,233.401z"/>
	<path d="M73.913,257.075c-0.364-0.121-0.85-0.363-1.093-0.363c-0.243,0-0.243,0.242-0.364,0.363
		c-0.122,0.122-0.364,0.122-0.485,0.243c-0.122,0.121-0.122,0.365,0,0.607c0.121,0.243,0.364,0.485,0.364,0.85
		c0,0.365-0.243,0.851-0.485,1.457c-0.243,0.607-0.486,1.337-0.729,1.699c-0.242,0.365-0.486,0.365-0.606,0.244
		c-0.122-0.121-0.122-0.365-0.243-0.486c-0.122-0.12-0.365-0.12-0.486-0.364c-0.122-0.244-0.122-0.728-0.122-1.215
		c0-0.484,0-0.97-0.121-1.214c-0.121-0.243-0.365-0.243-0.729,0.123c-0.364,0.363-0.85,1.091-1.457,1.455
		c-0.607,0.365-1.335,0.365-1.578,0.485c-0.243,0.121,0,0.365,0,0.729c0,0.365-0.243,0.849-0.486,1.337
		c-0.243,0.483-0.486,0.969-0.364,1.211c0.122,0.246,0.607,0.246,1.093-0.119c0.485-0.364,0.971-1.092,1.335-1.215
		c0.364-0.121,0.607,0.364,0.971,0.729c0.364,0.362,0.85,0.604,0.971,0.728c0.122,0.123-0.122,0.123-0.243,0.364
		c-0.121,0.244-0.121,0.728,0,0.972s0.365,0.244,0.85,0.244c0.486,0,1.214,0,1.7,0.118c0.486,0.123,0.729,0.365,0.607,0.609
		c-0.121,0.241-0.607,0.483-0.85,0.848c-0.243,0.365-0.243,0.851-0.364,1.216c-0.121,0.362-0.365,0.606-0.851,0.729
		c-0.485,0.121-1.213,0.121-1.942,0c-0.729-0.123-1.457-0.367-1.943-0.367c-0.485,0-0.729,0.244-0.971,0.244
		s-0.486-0.244-0.607-0.485c-0.121-0.244-0.121-0.486-0.242-0.729c-0.122-0.242-0.364-0.484-0.364-0.728
		c0-0.244,0.243-0.486,0.486-0.607c0.242-0.12,0.485-0.12,0.607-0.243c0.121-0.121,0.121-0.363-0.122-0.486
		c-0.243-0.118-0.729-0.118-1.214-0.241c-0.486-0.121-0.971-0.365-1.214-0.365c-0.243,0-0.243,0.244-0.122,0.488
		c0.122,0.241,0.365,0.483,0.486,0.728c0.122,0.241,0.122,0.483,0,0.971c-0.121,0.484-0.364,1.214-0.243,1.578
		c0.122,0.365,0.607,0.365,0.972,0.486c0.364,0.12,0.607,0.362,0.85,0.606c0.242,0.241,0.485,0.485,0.728,0.485
		s0.486-0.244,0.729-0.364c0.242-0.121,0.485-0.121,0.728,0c0.243,0.12,0.485,0.364,0.729,0.729c0.243,0.362,0.486,0.85,0.486,1.334
		c0,0.485-0.243,0.971-0.243,1.215c0,0.242,0.243,0.242,0.486,0.121s0.485-0.365,1.092-0.485c0.607-0.123,1.579-0.123,2.307-0.242
		c0.729-0.123,1.214-0.365,1.579-0.608c0.364-0.242,0.607-0.484,0.729-0.851c0.122-0.363,0.122-0.849,0-1.213
		c-0.122-0.365-0.364-0.607-0.485-0.849c-0.122-0.244-0.122-0.488,0.121-0.729c0.243-0.244,0.728-0.486,1.335-0.851
		c0.607-0.363,1.335-0.851,1.821-1.578s0.729-1.699,1.093-2.306c0.364-0.608,0.85-0.851,1.093-0.851
		c0.243,0,0.243,0.242,0.607,0.365c0.364,0.121,1.092,0.121,1.7,0.121c0.607,0,1.093,0,1.457,0.12
		c0.365,0.121,0.607,0.363,0.729,0.728c0.122,0.367,0.122,0.851,0.243,1.095c0.122,0.244,0.364,0.244,0.971-0.123
		c0.607-0.362,1.578-1.09,1.943-1.455c0.364-0.364,0.121-0.364-0.122-0.485c-0.243-0.123-0.485-0.365-0.971-0.486
		c-0.486-0.12-1.214-0.12-1.578-0.485c-0.364-0.364-0.364-1.092-0.364-1.701c0-0.606,0-1.092,0.121-1.455
		c0.122-0.364,0.364-0.608,0.243-0.973c-0.121-0.363-0.607-0.849-1.092-1.335c-0.486-0.485-0.972-0.971-1.214-0.971
		c-0.243,0-0.243,0.485-0.486,0.728c-0.243,0.243-0.729,0.243-0.972,0c-0.243-0.242-0.243-0.728-0.365-0.97
		c-0.121-0.244-0.364-0.244-0.485,0c-0.122,0.242-0.122,0.728-0.364,1.091c-0.243,0.364-0.729,0.608-0.971,1.094
		c-0.243,0.484-0.243,1.214-0.365,1.336c-0.121,0.121-0.364-0.364-0.606-0.485c-0.243-0.123-0.486,0.121-0.729,0.606
		c-0.243,0.484-0.486,1.214-0.729,1.455c-0.243,0.244-0.486,0-0.486-0.241c0-0.242,0.243-0.486,0.365-0.851
		c0.121-0.363,0.121-0.849,0.121-1.336c0-0.484,0-0.97,0.122-1.214c0.12-0.242,0.364-0.242,0.485-0.364
		c0.121-0.121,0.121-0.363,0-0.604c-0.122-0.244-0.365-0.486-0.607-0.609c-0.243-0.121-0.486-0.121-0.607,0
		c-0.122,0.123-0.122,0.365-0.122,0.609c0,0.241,0,0.483-0.122,0.604C74.52,257.197,74.277,257.197,73.913,257.075z"/>
	<path d="M61.53,252.099c0.121-0.243,0.121-0.486-0.122-0.607c-0.243-0.121-0.729-0.121-1.214-0.121s-0.971,0-1.457-0.122
		c-0.485-0.121-0.971-0.364-1.336-0.364c-0.364,0-0.606,0.243-0.85,0.607c-0.243,0.364-0.485,0.85-0.729,1.457
		c-0.243,0.606-0.486,1.336-0.364,1.821c0.121,0.485,0.607,0.729,0.85,1.093c0.243,0.365,0.243,0.85,0.122,1.335
		c-0.122,0.486-0.364,0.972-0.607,1.093c-0.243,0.121-0.486-0.121-0.729-0.364c-0.242-0.242-0.485-0.486-0.606-0.486
		s-0.122,0.244,0,0.608c0.122,0.363,0.364,0.849,0.729,1.214c0.364,0.364,0.85,0.606,1.092,0.849
		c0.243,0.243,0.243,0.487,0.122,0.608c-0.122,0.121-0.364,0.121-0.486,0.485c-0.122,0.365-0.122,1.093-0.243,1.457
		c-0.122,0.365-0.365,0.365-0.608,0.242c-0.242-0.121-0.485-0.365-0.728-0.486c-0.243-0.12-0.485-0.12-0.729,0.121
		c-0.242,0.244-0.485,0.729-0.85,1.095c-0.363,0.362-0.85,0.604-1.092,0.604c-0.243,0-0.243-0.242-0.364-0.242
		c-0.122,0-0.364,0.242-0.485,0.488c-0.122,0.241-0.122,0.485,0,0.728c0.122,0.241,0.364,0.485,0.606,0.485
		c0.243,0,0.486-0.244,0.728-0.485c0.244-0.242,0.486-0.486,0.851-0.728c0.364-0.246,0.85-0.488,1.334-0.609
		c0.486-0.12,0.971-0.12,1.457,0c0.486,0.121,0.972,0.363,1.335,0.609c0.365,0.241,0.607,0.485,0.851,0.485
		c0.243,0,0.485-0.244,0.606-0.608c0.122-0.365,0.122-0.851,0-1.093c-0.121-0.241-0.364-0.241-0.486-0.364
		c-0.121-0.121-0.121-0.365,0-0.728c0.122-0.365,0.365-0.851,0.486-1.457c0.122-0.608,0.122-1.336,0.243-1.699
		c0.122-0.366,0.364-0.366,0.486-0.487s0.122-0.363,0.243-0.972c0.121-0.606,0.364-1.576,0.243-2.306
		c-0.122-0.728-0.607-1.214-0.729-1.577c-0.122-0.365,0.121-0.608,0.364-0.729c0.242-0.122,0.485-0.122,0.728-0.122
		s0.486,0,0.729-0.122C61.165,252.584,61.408,252.341,61.53,252.099z"/>
	<path d="M64.443,249.549c-0.364-0.122-0.85-0.608-1.093-1.093c-0.243-0.486-0.243-0.972-0.243-1.335c0-0.364,0-0.607,0.121-0.729
		c0.122-0.121,0.365-0.121,0.729-0.121c0.364,0,0.85,0,1.335-0.122c0.486-0.122,0.971-0.365,1.457-0.607
		c0.485-0.244,0.971-0.486,1.457-0.607c0.485-0.121,0.971-0.121,1.578-0.121c0.607,0,1.335,0,1.7,0.243
		c0.364,0.242,0.364,0.728,0.243,1.093c-0.122,0.364-0.364,0.607-0.243,0.971c0.121,0.364,0.607,0.85,0.728,1.214
		c0.122,0.364-0.121,0.606-0.364,0.729c-0.243,0.122-0.486,0.122-0.607,0.606c-0.122,0.486-0.122,1.457,0.243,1.943
		s1.093,0.486,1.214,0.607c0.122,0.121-0.364,0.364-0.85,0.728c-0.486,0.364-0.971,0.849-1.215,0.971
		c-0.242,0.121-0.242-0.122-0.485-0.365c-0.243-0.243-0.728-0.485-0.85-0.728c-0.122-0.243,0.122-0.486,0.243-0.85
		c0.121-0.364,0.121-0.85-0.121-1.214c-0.244-0.364-0.729-0.607-0.972-1.214c-0.243-0.608-0.243-1.579-0.485-1.943
		c-0.243-0.364-0.729-0.122-1.093,0.122c-0.364,0.242-0.607,0.485-0.971,0.607c-0.365,0.121-0.85,0.121-0.972,0.243
		c-0.122,0.121,0.122,0.363,0.122,0.607C65.05,249.427,64.807,249.67,64.443,249.549z"/>
	<path d="M377.67,477.306c-0.121-0.12-0.364-0.12-0.606,0c-0.243,0.121-0.485,0.363-0.85,0.486c-0.366,0.121-0.851,0.121-1.337,0
		c-0.485-0.123-0.971-0.365-1.577-0.486c-0.606-0.12-1.335-0.12-2.064,0c-0.727,0.121-1.457,0.363-1.942,0.363
		c-0.486,0-0.729-0.242-0.851-0.483c-0.12-0.244-0.12-0.486-0.241-0.607c-0.122-0.122-0.365-0.122-0.606,0
		c-0.244,0.121-0.487,0.363-0.608,0.607c-0.121,0.241-0.121,0.483,0,0.606c0.121,0.121,0.364,0.121,0.485,0.241
		c0.123,0.121,0.123,0.365,0.243,0.609c0.121,0.241,0.364,0.485,0.486,1.092c0.121,0.606,0.121,1.578,0,2.306
		c-0.122,0.729-0.365,1.215-0.365,1.457c0,0.244,0.243,0.244,0.606,0.244c0.364,0,0.851,0,1.215,0.12
		c0.364,0.121,0.606,0.365,0.852,0.851c0.24,0.486,0.484,1.214,0.849,1.699c0.363,0.485,0.85,0.729,1.699,0.729
		s2.064-0.244,2.671-0.244s0.606,0.244,0.606,0.607c0,0.364,0,0.85,0.364,1.215c0.365,0.364,1.093,0.606,1.336,0.972
		c0.243,0.364,0,0.848,0,1.213c0,0.364,0.243,0.606,0.608,0.729c0.362,0.121,0.849,0.121,1.213,0.242
		c0.364,0.12,0.606,0.364,0.85,0.364c0.241,0,0.485-0.244,0.729-0.729s0.485-1.213,0.485-1.699c0-0.485-0.242-0.728-0.242-0.971
		c0-0.244,0.242-0.486,0.485-0.729c0.244-0.242,0.486-0.486,0.364-0.606c-0.12-0.121-0.607-0.121-1.093-0.242
		c-0.487-0.121-0.972-0.365-1.335-0.728c-0.365-0.365-0.607-0.851-0.851-0.972c-0.243-0.123-0.486,0.121-0.971,0
		c-0.486-0.123-1.214-0.608-1.457-0.973c-0.242-0.363,0-0.607,0-0.849c0-0.244-0.242-0.486-0.364-0.729
		c-0.122-0.242-0.122-0.486,0.122-0.728c0.242-0.244,0.728-0.486,1.092-0.486s0.607,0.242,0.729,0.242
		c0.122,0,0.122-0.242,0.122-0.485c0-0.242,0-0.486-0.122-0.607c-0.121-0.12-0.364-0.12-0.607-0.364
		c-0.242-0.242-0.485-0.728-0.485-1.093c0-0.362,0.243-0.606,0.364-0.848c0.121-0.244,0.121-0.488,0.121-0.729
		C377.791,477.669,377.791,477.427,377.67,477.306z"/>
	<path d="M45.14,322.999c0.243-0.242,0.729-0.242,1.214-0.485c0.486-0.242,0.972-0.728,1.457-0.728c0.486,0,0.972,0.485,1.457,0.728
		c0.486,0.243,0.972,0.243,1.457,0.243c0.486,0,0.972,0,0.972,0.242s-0.486,0.728-0.728,1.213c-0.244,0.486-0.244,0.972-0.486,1.216
		c-0.243,0.243-0.729,0.243-0.971,0.485c-0.244,0.242-0.244,0.729-0.486,0.972c-0.243,0.244-0.729,0.244-0.971,0.485
		c-0.244,0.242-0.244,0.728-0.486,0.728c-0.243,0-0.729-0.485-0.729-0.969c0-0.486,0.486-0.974,0.729-1.458
		c0.242-0.487,0.242-0.973,0-1.215c-0.243-0.244-0.729-0.244-1.215-0.244c-0.485,0-0.971,0-1.214-0.241
		C44.896,323.727,44.896,323.241,45.14,322.999z"/>
</g>
<g id="縣級間隔線">
	<g>
		<path fill="#FFFFFF" d="M292.251,457.894c-0.467-0.063-0.996-0.063-1.508-0.063c-2.657,0-4.412,0-6.254-0.613
			c-1.028-0.343-1.987-0.847-2.834-1.291c-0.531-0.278-1.032-0.541-1.428-0.699c-0.403-0.162-0.784-0.251-1.226-0.354
			c-0.632-0.149-1.349-0.317-2.124-0.705c-1.33-0.666-2.477-1.811-3.313-2.646c-0.843-0.843-1.707-1.707-2.121-3.35
			c-0.317-1.277-0.317-2.857-0.317-4.251c0-0.198,0-0.434-0.006-0.642c-0.203-0.034-0.424-0.065-0.591-0.088
			c-0.458-0.064-0.932-0.131-1.398-0.248c-1.86-0.462-3.045-1.645-3.516-3.514c-0.318-1.273-0.318-2.878-0.318-4.737
			c0-1.65,0-3.357-0.664-6.235c-0.679-2.946-2.077-7.179-3.068-9.908c-0.315-0.865-0.579-1.549-0.799-2.12
			c-0.481-1.251-0.8-2.078-1.003-3.099c-0.348-1.729-0.261-3.599,0.269-5.711c0.341-1.364,0.868-2.854,1.479-4.579
			c0.32-0.902,0.661-1.865,1.002-2.889c0.945-2.833,1.894-6.147,2.36-8.251l0.137-0.64c0.396-1.884,0.771-3.662,3.408-5.309
			c1.85-1.157,4.988-2.396,7.511-3.393l1.139-0.451c2.091-0.834,2.89-1.23,3.289-1.63c0.257-0.258,0.575-0.693,0.76-1.801
			c0.208-1.252,0.208-3.099,0.208-4.446c0-1.289,0-1.521-0.636-2.285c-0.908-1.089-2.868-2.711-4.165-3.784l-0.613-0.509
			c-1.737-1.446-2.568-2.321-3.23-4.628c-0.267-0.936-0.521-2.146-0.767-3.316c-0.231-1.098-0.47-2.231-0.689-3
			c-0.289-1.008-0.514-1.326-0.854-1.808c-0.094-0.133-0.188-0.267-0.281-0.407c-0.415-0.622-1.17-1.898-1.559-3.452
			c-0.344-1.366-0.344-2.757,0.001-4.128c0.389-1.551,1.143-2.826,1.558-3.449c0.626-0.938,1.262-1.572,1.772-2.082l1.456-1.455
			c0.377-0.378,0.435-0.436,0.529-0.907c0.119-0.602,0.175-1.669,0.25-3.145c0.048-0.921,0.104-2.016,0.191-3.329
			c0.152-2.282,0.399-5.227,0.623-7.89c0.134-1.597,0.259-3.093,0.351-4.278c0.069-0.913,0.119-1.641,0.16-2.244
			c0.104-1.533,0.162-2.378,0.366-3.396c0.339-1.685,0.987-3.432,1.344-4.322c0.618-1.548,1.223-2.663,2.021-3.728
			c0.449-0.599,0.94-1.155,1.46-1.744c0.404-0.458,0.833-0.941,1.261-1.477c0.309-0.386,0.618-0.798,0.927-1.211
			c0.688-0.916,1.398-1.863,2.169-2.635c0.909-0.909,1.807-1.478,2.758-2.081c0.314-0.198,0.652-0.413,1.024-0.66
			c0.3-0.2,0.621-0.422,0.957-0.653c1.396-0.961,2.978-2.05,4.544-2.721c0.81-0.349,1.557-0.556,2.278-0.757
			c0.452-0.125,0.935-0.258,1.48-0.444l1.613,4.732c-0.647,0.221-1.219,0.381-1.755,0.53c-0.639,0.177-1.143,0.316-1.645,0.533
			c-1.113,0.477-2.478,1.416-3.681,2.244c-0.358,0.247-0.701,0.482-1.021,0.695c-0.406,0.271-0.776,0.506-1.12,0.724
			c-0.832,0.527-1.382,0.876-1.899,1.393c-0.519,0.52-1.121,1.322-1.703,2.1c-0.342,0.455-0.684,0.91-1.024,1.337
			c-0.481,0.601-0.962,1.146-1.416,1.66c-0.452,0.512-0.879,0.996-1.208,1.434c-0.525,0.701-0.925,1.451-1.378,2.585
			c-0.492,1.229-0.897,2.519-1.084,3.449c-0.14,0.698-0.184,1.342-0.28,2.752c-0.042,0.615-0.092,1.357-0.164,2.288
			c-0.091,1.195-0.218,2.703-0.353,4.313c-0.222,2.635-0.466,5.548-0.617,7.805c-0.085,1.282-0.14,2.353-0.187,3.252
			c-0.09,1.75-0.148,2.906-0.34,3.867c-0.392,1.955-1.296,2.861-1.895,3.461l-1.461,1.46c-0.445,0.444-0.795,0.794-1.146,1.319
			c-0.396,0.593-0.72,1.3-0.868,1.891c-0.144,0.573-0.144,1.127,0,1.695c0.148,0.596,0.473,1.303,0.868,1.895l0.206,0.298
			c0.576,0.816,1.093,1.63,1.575,3.316c0.269,0.939,0.526,2.162,0.775,3.346c0.229,1.086,0.465,2.209,0.682,2.972
			c0.291,1.013,0.367,1.114,1.624,2.16l0.6,0.498c1.525,1.263,3.613,2.99,4.818,4.437c1.795,2.155,1.795,3.848,1.795,5.485
			c0,1.522,0,3.606-0.276,5.268c-0.317,1.905-1.022,3.382-2.155,4.514c-1.079,1.081-2.35,1.693-4.97,2.739l-1.158,0.459
			c-2.209,0.872-5.234,2.065-6.697,2.981c-0.832,0.52-0.832,0.52-1.164,2.098l-0.149,0.693c-0.5,2.255-1.504,5.771-2.498,8.748
			c-0.351,1.055-0.702,2.048-1.031,2.979c-0.568,1.604-1.059,2.988-1.342,4.122c-0.35,1.396-0.419,2.513-0.217,3.517
			c0.12,0.604,0.351,1.201,0.768,2.284c0.229,0.594,0.502,1.305,0.83,2.207c1.09,3.001,2.514,7.332,3.243,10.494
			c0.791,3.433,0.791,5.609,0.791,7.358c0,1.336,0,2.715,0.146,3.424c0.24,0.052,0.508,0.085,0.779,0.123
			c0.988,0.139,2.109,0.295,3.06,0.929c1.844,1.229,1.844,3.266,1.844,4.753c0,0.997,0,2.362,0.168,3.037
			c0.064,0.258,0.119,0.342,0.799,1.021c0.566,0.565,1.416,1.413,2.021,1.717c0.252,0.126,0.596,0.206,1.032,0.309
			c0.53,0.125,1.191,0.28,1.938,0.581c0.631,0.251,1.272,0.588,1.894,0.913c0.712,0.374,1.447,0.76,2.092,0.975
			c1.071,0.357,2.351,0.357,4.673,0.357c0.611,0,1.373,0,2.168,0.105L292.251,457.894z"/>
		<path fill="#FFFFFF" d="M316.481,134.332l-1.213-4.851c5.562-1.39,6.906-2.063,7.987-2.603c1.117-0.558,1.731-0.865,2.86-2.183
			c0.781-0.911,1.789-2.305,2.765-3.653c0.76-1.051,1.531-2.117,2.259-3.053c1.123-1.443,2.136-2.574,3.029-3.572
			c0.497-0.556,0.963-1.075,1.396-1.594c1.103-1.325,1.908-2.551,2.268-3.452c0.177-0.442,0.16-0.601,0.16-0.602l4.157-2.789
			c1.008,1.557,1.114,3.272,0.326,5.244c-0.701,1.762-2.057,3.583-3.069,4.8c-0.472,0.564-0.975,1.127-1.514,1.729
			c-0.881,0.984-1.791,2-2.808,3.306c-0.693,0.892-1.429,1.91-2.153,2.913c-1.083,1.497-2.105,2.911-3.021,3.978
			c-1.785,2.084-3.125,2.753-4.421,3.4C324.192,132,322.574,132.809,316.481,134.332z"/>
		<path fill="#FFFFFF" d="M342.319,108.391l-4.535-2.104c0.306-0.658,0.411-1.621,0.513-2.552c0.035-0.317,0.069-0.63,0.11-0.933
			c0.306-2.294,0.98-4.099,2.406-6.434c0.46-0.752,1.015-1.585,1.607-2.474c0.76-1.14,1.546-2.319,2.264-3.528l4.301,2.551
			c-0.785,1.323-1.646,2.614-2.405,3.752c-0.553,0.829-1.072,1.606-1.5,2.306c-1.202,1.97-1.531,3.098-1.718,4.49
			c-0.035,0.265-0.064,0.538-0.095,0.815C343.128,105.549,342.971,106.988,342.319,108.391z"/>
		<path fill="#FFFFFF" d="M347.034,94.16c-0.209,0-0.426-0.019-0.651-0.06l0.904-4.918c-0.314-0.057-0.528,0.006-0.529,0.006
			c0.101-0.03,0.392-0.164,0.627-0.271c0.229-0.105,0.482-0.221,0.769-0.344c0.967-0.415,2.253-0.885,3.613-1.382
			c1.152-0.421,2.372-0.867,3.486-1.313c2.327-0.93,4.158-1.846,5.629-2.582c0.5-0.25,1.168-0.583,1.312-0.748
			c-0.002-0.003,0.01-0.037,0.021-0.102c0.096-0.572-0.024-1.751-0.12-2.699c-0.081-0.797-0.157-1.55-0.157-2.231
			c0-3.023,1.853-4.182,5.545-6.491c1.443-0.902,3.352-2.069,5.395-3.319c3.419-2.092,7.296-4.463,9.871-6.129
			c3.96-2.563,4.606-3.32,5.039-4.042c0.222-0.369,0.433-0.8,0.636-1.218c0.531-1.089,1.033-2.119,2.094-2.648
			c1.683-0.839,3.057,0.259,3.507,0.621c0.063,0.049,0.127,0.109,0.201,0.16c0.198-0.023,0.785-0.195,1.25-0.544
			c0.477-0.357,0.769-0.912,1.206-1.788c0.557-1.113,1.248-2.498,3.453-4.074c1.873-1.336,4.895-2.845,6.894-3.844
			c2.033-1.017,3.261-1.631,5.227-1.935c1.191-0.183,2.837-0.294,6.011,0.263l-0.863,4.925c-2.464-0.432-3.601-0.367-4.388-0.246
			c-1.135,0.175-1.805,0.491-3.751,1.465c-1.748,0.873-4.671,2.333-6.224,3.441c-1.192,0.852-1.469,1.404-1.886,2.239
			c-0.549,1.099-1.233,2.468-2.678,3.553c-1.281,0.96-3.491,1.902-5.506,1.397c-0.136-0.034-0.265-0.073-0.389-0.116
			c-0.152,0.299-0.319,0.61-0.507,0.921c-1.067,1.781-2.488,3-6.61,5.667c-2.629,1.701-6.533,4.089-9.979,6.197
			c-2.026,1.24-3.922,2.399-5.354,3.293c-0.899,0.563-2.714,1.698-3.194,2.189c0,0.02,0,0.041,0,0.062
			c0,0.429,0.063,1.06,0.132,1.728c0.139,1.374,0.283,2.793,0.077,4.026c-0.452,2.712-2.429,3.7-4.018,4.494
			c-1.482,0.741-3.498,1.75-6.019,2.757c-1.159,0.464-2.427,0.928-3.625,1.366c-1.296,0.474-2.519,0.921-3.359,1.281
			c-0.244,0.105-0.462,0.205-0.659,0.295C348.717,93.807,347.946,94.16,347.034,94.16z"/>
		<path fill="#FFFFFF" d="M286.381,154.036c-0.847,0-1.527-0.308-1.873-0.464c-0.082-0.037-0.167-0.08-0.261-0.111
			c-0.152-0.051-0.5-0.101-0.779-0.141c-0.502-0.072-1.07-0.153-1.647-0.344c-1.128-0.377-2.085-1.124-2.687-2.083
			c-0.05,0.021-0.1,0.042-0.149,0.064c-0.494,0.211-0.99,0.42-1.414,0.561c-1.229,0.411-2.284,0.412-3.52,0
			c-0.318-0.106-0.673-0.248-1.052-0.402c-0.49-0.2-0.998-0.406-1.438-0.516c-0.671-0.168-1.43-0.168-2.308-0.168h-2.669
			c-0.886,0-1.802,0-2.815-0.505c-0.849-0.426-1.474-1.05-2.34-1.913c-0.584-0.584-1.537-1.539-2.061-1.888
			c-0.03-0.02-0.061-0.04-0.091-0.054c-0.068-0.011-0.423-0.011-0.708-0.011c-0.741,0-2.12,0-2.792,0.168
			c-0.25,0.063-0.428,0.167-0.844,0.42c-0.319,0.194-0.661,0.399-1.075,0.605c-0.521,0.261-1.111,0.502-1.736,0.757
			c-0.704,0.288-1.433,0.585-2.148,0.942c-0.394,0.197-0.788,0.414-1.176,0.626c-1.151,0.631-2.341,1.284-3.581,1.531
			c-1.553,0.311-2.796-0.072-3.703-0.352c-0.185-0.057-0.367-0.114-0.549-0.16c-0.212-0.053-0.427-0.09-0.648-0.13
			c-0.795-0.145-1.885-0.342-3.262-1.031c-0.942-0.471-1.95-1.133-3.017-1.833c-0.747-0.49-1.519-0.997-2.204-1.389
			c-0.774-0.442-1.512-0.781-2.226-1.108c-0.761-0.349-1.48-0.679-2.19-1.104c-1.48-0.888-2.609-2.018-3.517-2.926l-3.619-3.618
			l3.536-3.535l3.618,3.618c0.788,0.788,1.602,1.602,2.553,2.173c0.473,0.284,1.042,0.545,1.701,0.847
			c0.775,0.355,1.654,0.758,2.624,1.312c0.82,0.469,1.657,1.019,2.467,1.55c0.899,0.59,1.829,1.2,2.51,1.541
			c0.737,0.369,1.258,0.463,1.917,0.583c0.332,0.06,0.651,0.12,0.97,0.2c0.269,0.067,0.537,0.148,0.808,0.232
			c0.6,0.185,0.956,0.285,1.251,0.228c0.488-0.098,1.375-0.583,2.156-1.012c0.444-0.244,0.895-0.49,1.345-0.715
			c0.886-0.443,1.741-0.792,2.495-1.1c0.524-0.214,1.001-0.405,1.389-0.6c0.277-0.138,0.502-0.278,0.715-0.407
			c0.549-0.333,1.232-0.749,2.228-0.997c1.268-0.317,2.914-0.317,4.004-0.317c1.138,0,2.213,0,3.571,0.904
			c0.938,0.626,1.977,1.665,2.811,2.5c0.382,0.38,0.801,0.799,1.008,0.956c0.141,0.011,0.405,0.011,0.625,0.011h2.669
			c1.056,0,2.252,0,3.521,0.317c0.783,0.196,1.519,0.495,2.109,0.735c0.271,0.11,0.522,0.215,0.747,0.29
			c0.11,0.037,0.167,0.049,0.188,0.052c0.004-0.003,0.061-0.016,0.171-0.053c0.31-0.103,0.667-0.26,1.026-0.414
			c0.49-0.21,0.982-0.417,1.402-0.558c2.117-0.706,3.354-0.061,4.018,0.605c0.597,0.6,0.788,1.279,0.901,1.685
			c0.018,0.062,0.032,0.129,0.06,0.197c0.144-0.012,0.497,0.041,0.776,0.081c0.505,0.072,1.077,0.153,1.656,0.348
			c0.069,0.022,0.137,0.047,0.202,0.072c0.1-0.111,0.2-0.225,0.285-0.321c0.53-0.601,1.131-1.283,1.833-1.809
			c1.641-1.228,3.287-1.228,4.172-1.228h1.634c0.258-0.258,0.657-0.771,1.01-1.225c0.463-0.596,0.942-1.212,1.415-1.685
			c1.379-1.379,2.664-1.457,3.353-1.46c0.026-0.036,0.054-0.073,0.082-0.112c0.42-0.561,1.055-1.407,2.113-2.254
			c1.557-1.247,3.826-2.329,5.384-2.848c1.634-0.544,3.013-0.67,4.116-0.373c0.067-0.116,0.13-0.24,0.182-0.369
			c0.101-0.251,0.168-0.515,0.242-0.788c0.309-1.121,0.731-2.656,2.254-4.18l3.536,3.535c-0.589,0.589-0.74,1.139-0.969,1.972
			c-0.11,0.4-0.235,0.854-0.422,1.319c-0.625,1.563-1.947,3.134-3.143,3.733c-0.431,0.216-1.85,0.773-3.186-0.362
			c-0.212,0.028-0.549,0.095-1.031,0.255c-1.3,0.434-2.951,1.297-3.839,2.008c-0.563,0.451-0.906,0.908-1.237,1.35
			c-0.223,0.298-0.454,0.606-0.738,0.892c-1.185,1.182-2.492,1.22-3.165,1.221c-0.254,0.255-0.65,0.766-1.001,1.216
			c-0.467,0.6-0.948,1.22-1.426,1.695c-1.458,1.459-2.813,1.459-3.464,1.459h-1.7c-0.629,0-0.894,0.02-1.174,0.229
			c-0.29,0.217-0.71,0.694-1.081,1.115c-0.552,0.625-1.073,1.216-1.701,1.635C287.661,153.882,286.979,154.036,286.381,154.036z"/>
		<path fill="#FFFFFF" d="M296.464,295.517c-0.721-2.007-0.484-4.03-0.28-5.058c0.091-0.456,0.21-0.886,0.322-1.285
			c0.003-0.011,0.006-0.021,0.009-0.032c-0.13-0.032-0.287-0.065-0.473-0.096c-0.598-0.101-1.36-0.157-2.099-0.212
			c-0.937-0.07-1.821-0.136-2.6-0.292c-1.978-0.394-3.267-1.443-3.823-3.12c-0.37-1.109-0.37-2.325-0.37-3.214
			c0-0.893,0-2.749,1.854-3.689c0.658-0.323,1.319-0.416,1.959-0.507c0.338-0.047,0.688-0.097,0.987-0.173
			c0.361-0.089,0.77-0.242,1.201-0.403c0.369-0.139,0.773-0.291,1.201-0.423c-0.479-0.609-0.89-1.372-0.89-2.334
			c0-1.286,0.707-2.152,1.525-3.154l0.479-0.591c0.484-0.605,2.142-2.715,3.183-4.536c0.458-0.803,0.802-1.559,1.104-2.226
			c0.315-0.694,0.588-1.294,0.927-1.803c1.04-1.56,2.378-1.774,3.673-1.983l0.422-0.069c0.705-0.118,1.642-0.294,2.581-0.47
			c1.004-0.188,2.012-0.377,2.765-0.502l0.308-0.05c0.031-0.608,0.031-1.394,0.031-1.855c0-1.359,0-3.221,1.703-4.923
			c1.576-1.578,4.414-2.761,4.968-2.982l0.257-0.101c0.073-0.028,0.142-0.053,0.206-0.078c0.083-0.179,0.24-0.595,0.468-1.505
			c0.411-1.644,0.919-4.338,1.409-6.943c0.352-1.87,0.696-3.7,0.999-5.114c0.389-1.814,0.716-2.981,0.933-3.753
			c0.055-0.196,0.113-0.406,0.158-0.576c-0.124-0.131-0.283-0.29-0.413-0.42c-0.665-0.666-1.571-1.574-2.403-2.198
			c-0.37-0.277-0.743-0.514-1.081-0.73c-0.591-0.378-1.15-0.736-1.615-1.202c-2.044-2.048-0.606-4.449-0.134-5.238
			c0.484-0.807,1.188-1.803,1.932-2.857c0.455-0.645,0.911-1.289,1.29-1.858c0.881-1.322,1.318-2.196,1.781-3.121
			c0.482-0.965,0.931-1.862,1.377-2.979c0.505-1.263,0.947-2.667,1.353-4.29c0.57-2.279,0.896-4.271,0.896-5.464
			c0-1.094-0.272-1.595-0.552-2.015c-0.342-0.512-0.688-0.859-1.126-1.299c-0.603-0.601-1.406-1.403-1.836-2.696
			c-0.557-1.665-0.21-3.426,1.159-5.888c1.269-2.285,3.767-5.796,5.551-8.091c0.446-0.574,0.844-1.065,1.191-1.496
			c0.555-0.687,1.183-1.464,1.278-1.726c-0.011-0.075-0.149-0.518-0.24-0.81c-0.091-0.29-0.18-0.58-0.252-0.87
			c-0.344-1.368-0.343-2.758,0.001-4.129c0.601-2.408,1.965-3.535,3.004-4.055c0.669-0.333,1.399-0.519,2.11-0.622
			c-0.117-0.214-0.236-0.433-0.354-0.649c-0.486-0.888-0.994-1.818-1.414-2.66c-1.097-2.19-1.659-3.89-1.939-5.864
			c-0.269-1.873-0.269-3.961-0.269-5.208c0-1.345,0-2.737,1.464-4.197c0.32-0.321,0.698-0.636,1.136-1
			c0.772-0.644,1.829-1.525,3.186-2.957c1.732-1.827,3.915-4.494,8.15-9.78l3.902,3.127c-4.326,5.399-6.569,8.137-8.424,10.093
			c-1.558,1.644-2.794,2.675-3.612,3.357c-0.328,0.273-0.595,0.489-0.793,0.687c-0.009,0.171-0.009,0.442-0.009,0.671
			c0,1.186,0,2.978,0.219,4.501c0.202,1.424,0.611,2.639,1.461,4.335c0.396,0.792,0.873,1.664,1.329,2.497
			c0.714,1.306,1.331,2.433,1.669,3.276c0.196,0.492,0.788,1.975-0.127,3.326c-0.895,1.319-2.371,1.319-3.165,1.319
			c-0.55,0-1.839,0-2.284,0.222c-0.106,0.054-0.271,0.321-0.389,0.796c-0.145,0.575-0.145,1.13-0.001,1.702
			c0.05,0.2,0.112,0.396,0.174,0.593c0.28,0.896,0.664,2.125,0.313,3.533c-0.315,1.26-1.079,2.205-2.233,3.635
			c-0.332,0.411-0.71,0.878-1.135,1.424c-1.722,2.215-4.037,5.486-5.127,7.449c-0.79,1.42-0.785,1.879-0.784,1.898
			c0.056,0.152,0.323,0.419,0.606,0.702c0.556,0.557,1.156,1.16,1.771,2.082c0.598,0.897,1.391,2.368,1.391,4.787
			c0,2.061-0.568,4.768-1.045,6.676c-0.461,1.843-0.972,3.457-1.562,4.934c-0.524,1.31-1.04,2.342-1.539,3.341
			c-0.521,1.04-1.049,2.095-2.102,3.674c-0.401,0.603-0.884,1.287-1.366,1.97c-0.558,0.791-1.132,1.604-1.53,2.227
			c0.421,0.269,0.882,0.568,1.344,0.915c1.119,0.839,2.172,1.893,2.939,2.663c0.866,0.864,1.946,1.943,1.946,3.71
			c0,0.699-0.173,1.316-0.412,2.171c-0.212,0.755-0.502,1.79-0.858,3.452c-0.295,1.379-0.631,3.166-0.975,4.991
			c-0.504,2.677-1.024,5.445-1.471,7.232c-0.78,3.12-1.579,4.202-3.715,5.032l-0.212,0.083c-1.321,0.528-2.766,1.351-3.287,1.874
			c-0.198,0.198-0.239,0.239-0.239,1.389c0,1.802-0.026,3.156-0.371,4.191c-0.698,2.095-2.463,2.376-3.752,2.582l-0.397,0.064
			c-0.723,0.12-1.694,0.302-2.662,0.483c-0.974,0.183-1.945,0.364-2.676,0.487l-0.452,0.074c-0.146,0.023-0.31,0.05-0.448,0.074
			c-0.116,0.23-0.262,0.55-0.395,0.843c-0.331,0.729-0.742,1.635-1.316,2.64c-1.188,2.077-2.927,4.313-3.618,5.178l-0.44,0.543
			c0.534,0.541,1.085,1.139,1.453,1.875c0.9,1.799,0.33,3.72-1.357,4.567c-0.643,0.32-1.314,0.415-1.964,0.506
			c-0.304,0.043-0.642,0.086-0.979,0.17c-0.345,0.087-0.748,0.238-1.176,0.398c-0.522,0.196-1.114,0.418-1.745,0.574
			c-0.351,0.088-0.693,0.15-1.006,0.2c0.008,0.258,0.023,0.52,0.056,0.724c0.032,0.008,0.069,0.017,0.11,0.024
			c0.479,0.097,1.247,0.153,1.99,0.209c0.851,0.063,1.729,0.129,2.549,0.266c2.516,0.417,4.075,1.471,4.629,3.132
			c0.408,1.222,0.085,2.366-0.174,3.285c-0.079,0.281-0.166,0.582-0.23,0.905c-0.174,0.872-0.144,1.766,0.081,2.392L296.464,295.517
			z"/>
		<path fill="#FFFFFF" d="M191.718,367.424c-1.254,0-2.334-0.223-3.223-0.667c-0.676-0.339-1.153-0.757-1.538-1.092
			c-0.182-0.159-0.431-0.377-0.505-0.392c-0.324-0.068-1.242,0.033-1.913,0.104c-0.813,0.087-1.735,0.186-2.697,0.186
			c-2.359,0-4.746-0.588-6.386-1.572c-0.208-0.125-0.4-0.253-0.577-0.382c-0.085,0.116-0.174,0.233-0.267,0.354
			c-0.223,0.293-0.477,0.624-0.787,1.104l-4.199-2.715c0.407-0.629,0.74-1.066,1.008-1.418c0.109-0.144,0.212-0.278,0.311-0.417
			c0.128-0.18,0.249-0.363,0.365-0.54c0.646-0.983,1.532-2.329,3.249-2.329c1.278,0,2.065,0.787,2.585,1.308
			c0.278,0.278,0.54,0.54,0.882,0.745c0.716,0.43,2.171,0.861,3.816,0.861c0.696,0,1.443-0.08,2.166-0.157
			c1.212-0.129,2.354-0.25,3.426-0.036c1.379,0.275,2.243,1.031,2.815,1.531c0.178,0.156,0.38,0.333,0.482,0.384
			c0.209,0.104,0.972,0.241,2.353,0.011c0.728-0.12,1.499-0.322,2.244-0.518c0.637-0.168,1.248-0.326,1.81-0.438
			c0.546-0.109,1.054-0.178,1.499-0.235c0.005-0.016,0.011-0.032,0.016-0.049c0.203-0.606,0.809-2.152,2.062-3.403
			c1.217-1.219,2.786-1.947,4.194-1.947c0.238,0,0.463,0.021,0.675,0.056c0.027-0.839,0.097-1.777,0.273-2.658
			c0.326-1.63,1.018-3.069,1.898-3.949c0.894-0.897,1.842-1.104,2.604-1.271c0.149-0.033,0.315-0.069,0.5-0.115
			c0.812-0.202,2.099-0.63,2.886-1.023c0.302-0.151,0.467-0.268,0.549-0.335c0.011-0.191,0.011-0.526,0.011-0.829
			c0-1.551,0.028-2.917,0.371-3.946c0.373-1.116,1.057-1.667,1.606-2.109c0.294-0.236,0.661-0.531,1.182-1.053
			c0.563-0.563,1.322-1.403,2.202-2.378c1.271-1.407,2.852-3.159,4.598-4.906c1.247-1.247,2.557-2.472,3.824-3.656
			c1.686-1.576,3.277-3.064,4.332-4.251c1.621-1.822,1.952-2.908,2.357-4.529c0.115-0.459,0.229-0.946,0.348-1.448
			c0.388-1.647,0.829-3.515,1.437-5.136c0.471-1.258,1.031-2.332,1.525-3.28c0.346-0.663,0.672-1.289,0.945-1.927
			c0.151-0.353,0.291-0.717,0.432-1.085c0.592-1.544,1.264-3.294,2.771-4.798c1.46-1.46,3.431-2.406,5.518-3.408
			c0.476-0.229,0.959-0.46,1.443-0.702c2.586-1.292,4.597-2.591,5.663-3.658c0.725-0.725,1.146-1.481,1.632-2.358
			c0.29-0.521,0.591-1.062,0.972-1.633c1.138-1.708,2.758-3.339,4.952-4.983c1.716-1.288,3.738-2.541,5.521-3.647l0.965-0.599
			c2.008-1.255,3.328-2.146,4.28-2.887c0.667-0.519,1.192-0.927,3.536-4.391l4.141,2.803c-2.368,3.5-3.266,4.492-4.607,5.534
			c-1.09,0.849-2.54,1.83-4.7,3.181l-0.979,0.608c-1.695,1.051-3.616,2.242-5.156,3.398c-1.709,1.28-2.984,2.544-3.792,3.757
			c-0.27,0.404-0.509,0.833-0.761,1.287c-0.585,1.053-1.248,2.247-2.467,3.465c-1.478,1.479-3.821,3.025-6.963,4.595
			c-0.507,0.254-1.015,0.498-1.515,0.738c-1.691,0.812-3.29,1.579-4.147,2.437c-0.754,0.754-1.164,1.819-1.637,3.054
			c-0.165,0.428-0.328,0.852-0.503,1.263c-0.348,0.812-0.734,1.553-1.108,2.269c-0.469,0.9-0.913,1.751-1.277,2.724
			c-0.496,1.323-0.88,2.952-1.251,4.528c-0.124,0.524-0.244,1.033-0.364,1.514c-0.521,2.082-1.142,4.02-3.471,6.639
			c-1.208,1.358-2.881,2.924-4.653,4.58c-1.237,1.157-2.516,2.353-3.703,3.54c-1.656,1.656-3.19,3.355-4.422,4.722
			c-0.926,1.025-1.726,1.912-2.378,2.563c-0.71,0.712-1.235,1.134-1.583,1.414c-0.014,0.011-0.027,0.021-0.041,0.032
			c-0.071,0.566-0.071,1.67-0.071,2.127c0,1.143,0,2.045-0.504,3.058c-0.528,1.052-1.449,1.893-2.819,2.578
			c-1.179,0.589-2.814,1.129-3.913,1.403c-0.238,0.06-0.45,0.105-0.642,0.147c-0.079,0.018-0.151,0.032-0.219,0.047
			c-0.119,0.203-0.321,0.63-0.449,1.271c-0.194,0.971-0.194,2.283-0.194,3.151c0,1.282,0,2.492-0.976,3.468
			c-1.018,1.02-2.628,1.203-4.098,0.47c-0.21-0.105-0.419-0.233-0.634-0.37c-0.018-0.012-0.035-0.023-0.053-0.035
			c-0.125,0.073-0.346,0.212-0.555,0.421c-0.411,0.41-0.717,1.037-0.854,1.451c-0.043,0.129-0.075,0.248-0.105,0.357
			c-0.179,0.652-0.513,1.866-1.882,2.546c-0.657,0.331-1.363,0.422-2.111,0.519c-0.348,0.045-0.747,0.095-1.18,0.183
			c-0.477,0.095-0.988,0.23-1.522,0.37c-0.815,0.214-1.74,0.456-2.691,0.614C193.127,367.358,192.397,367.424,191.718,367.424z"/>
		<path fill="#FFFFFF" d="M278.111,276.618l-0.26-0.073c-0.656-0.188-1.176-0.336-1.798-0.336c-0.425,0-0.988,0.064-1.584,0.133
			c-1.146,0.132-2.444,0.28-3.68,0.076c-2.367-0.394-3.845-1.964-5.156-3.538c-0.372-0.447-0.77-0.941-1.175-1.446
			c-0.887-1.104-1.804-2.245-2.557-2.996c-0.486-0.487-0.929-0.835-1.318-1.142c-0.618-0.484-1.201-0.942-1.577-1.692
			c-0.721-1.447-0.078-2.732,0.196-3.282c0.05-0.099,0.11-0.204,0.15-0.326c0.054-0.161,0.11-0.63-0.052-1.277
			c-0.15-0.603-0.441-1.152-0.8-1.512c-0.387-0.386-1.039-0.714-2.179-1.094c-0.559-0.187-1.193-0.372-1.826-0.559
			c-1.027-0.302-2.088-0.614-2.924-0.948c-1.637-0.656-2.669-1.501-3.25-2.659c-0.059-0.118-0.11-0.232-0.154-0.341
			c-0.11-0.031-0.225-0.066-0.345-0.107c-0.136-0.045-0.281-0.098-0.435-0.154c-0.537-0.197-0.883-0.317-1.196-0.251
			c-0.369,0.074-1.036,0.394-1.623,0.677c-0.662,0.318-1.411,0.678-2.206,0.943c-1.703,0.568-3.525,0.678-5.572,0.337
			c-0.627-0.104-1.253-0.249-1.847-0.386c-0.591-0.137-1.326-0.308-1.628-0.308c-0.049,0-0.058,0-0.25,0.096
			c-0.291,0.146-0.779,0.39-1.45,0.39c-2.743,0-2.743-2.978-2.743-3.957V247c0-1.657,0-3.222,0.318-4.492
			c0.188-0.751,0.458-1.291,0.674-1.725c0.159-0.317,0.244-0.492,0.296-0.702c0.168-0.673,0.168-2.039,0.168-3.036
			c0-1.391,0-2.592,0.372-3.706c0.084-0.253,0.18-0.479,0.276-0.681c-0.254-0.253-0.487-0.476-0.639-0.526
			c-0.344-0.115-1.498-0.115-3.094-0.115c-2.269,0-5.698,0-8.482-0.253c-1.502-0.136-2.765-0.341-3.985-0.54
			c-1.036-0.168-2.013-0.327-3.08-0.434c-0.794-0.08-1.643-0.131-2.499-0.185c-1.812-0.112-3.686-0.228-5.32-0.591
			c-1.491-0.331-2.658-0.836-3.688-1.282c-0.663-0.287-1.236-0.535-1.8-0.696c-1.363-0.39-3.08-0.39-4.897-0.39
			c-1.705,0-3.637,0-4.609,0.194c-0.407,0.082-0.642,0.203-1.109,0.445c-0.354,0.183-0.794,0.411-1.367,0.64
			c-1.509,0.604-3.732,1.129-4.808,1.344c-1.35,0.27-1.985,0.291-2.675,0.291c-0.581,0-1.376,0-2.489-0.371
			c-0.903-0.3-1.936-0.817-3.243-1.471c-0.527-0.264-1.117-0.559-1.751-0.932l2.539-4.308c0.506,0.298,0.993,0.54,1.441,0.764
			c1.092,0.546,2.028,1.015,2.593,1.203c0.344,0.115,0.51,0.115,0.909,0.115c0.404,0,0.724,0,1.696-0.194
			c1.215-0.243,2.956-0.693,3.932-1.083c0.373-0.149,0.659-0.3,0.926-0.438c0.622-0.322,1.326-0.686,2.424-0.907
			c1.459-0.292,3.466-0.292,5.591-0.292c2.083,0,4.236,0,6.272,0.583c0.877,0.25,1.657,0.588,2.412,0.915
			c0.905,0.392,1.759,0.762,2.785,0.99c1.251,0.278,2.926,0.381,4.545,0.481c0.921,0.057,1.834,0.114,2.688,0.199
			c1.22,0.122,2.32,0.301,3.384,0.474c1.187,0.193,2.309,0.375,3.635,0.496c2.559,0.232,5.852,0.232,8.03,0.232
			c2.446,0,3.563,0,4.676,0.372c1.288,0.429,2.09,1.232,2.676,1.818c0.681,0.681,1.704,1.705,1.704,3.224
			c0,0.926-0.391,1.623-0.65,2.084c-0.086,0.153-0.175,0.312-0.206,0.404c-0.116,0.346-0.116,1.292-0.116,2.125
			c0,1.396,0,2.979-0.318,4.25c-0.188,0.75-0.458,1.291-0.675,1.725c-0.158,0.317-0.244,0.492-0.295,0.701
			c-0.169,0.675-0.169,2.06-0.169,3.281v2.382c0.705,0.063,1.437,0.233,2.202,0.412c0.495,0.115,1.016,0.238,1.537,0.325
			c1.24,0.207,2.246,0.16,3.167-0.149c0.496-0.165,1.042-0.428,1.621-0.706c0.896-0.431,1.822-0.876,2.809-1.073
			c1.708-0.344,3.079,0.16,3.897,0.459l0.295,0.105c0.198,0.066,0.37,0.104,0.515,0.139c0.504,0.119,1.266,0.299,1.917,0.948
			c0.602,0.604,0.793,1.284,0.907,1.69c0.009,0.034,0.018,0.069,0.028,0.105c0.087,0.06,0.282,0.177,0.657,0.327
			c0.615,0.246,1.562,0.524,2.478,0.794c0.693,0.204,1.386,0.408,1.999,0.612c1.356,0.453,2.908,1.081,4.131,2.301
			c0.998,1,1.749,2.361,2.115,3.836c0.36,1.436,0.341,2.881-0.054,4.066c-0.012,0.034-0.023,0.067-0.035,0.101
			c0.393,0.316,0.863,0.715,1.375,1.229c0.943,0.941,1.947,2.191,2.919,3.4c0.386,0.48,0.763,0.95,1.118,1.377
			c1.062,1.275,1.58,1.714,2.132,1.806c0.542,0.087,1.472-0.018,2.294-0.111c0.709-0.081,1.441-0.165,2.152-0.165
			c1.322,0,2.348,0.293,3.172,0.528l0.239,0.068L278.111,276.618z"/>
		<path fill="#FFFFFF" d="M295.964,277.179h-11.048c-2.652,0-4.254,0-5.71-0.29c-0.376-0.075-0.733-0.17-1.088-0.269l1.34-4.816
			c0.235,0.065,0.472,0.131,0.724,0.181c0.975,0.194,2.39,0.194,4.734,0.194h11.048V277.179z"/>
		<path fill="#FFFFFF" d="M339.184,319.429c-1.386,0-2.755-0.111-5.488-1.479c-2.645-1.32-6.646-3.836-8.916-5.606
			c-1.465-1.138-2.274-2.012-2.81-2.59c-0.168-0.182-0.378-0.407-0.454-0.466c0.016,0.021-0.128,0.021-0.238,0.059
			c-0.112,0.037-0.21,0.092-0.307,0.138c-0.61,0.294-1.747,0.841-3.219,0.347c-0.685-0.229-1.239-0.615-2.009-1.151
			c-0.684-0.476-1.619-1.128-3.071-1.975c-1.414-0.824-3.366-1.861-5.255-2.864c-1.932-1.026-3.929-2.087-5.429-2.962
			c-2.795-1.63-4.58-2.989-5.432-5.115l-0.099-0.261l4.717-1.66l0.032,0.085c0.174,0.435,0.597,1.056,3.301,2.633
			c1.414,0.824,3.366,1.861,5.255,2.864c1.932,1.026,3.929,2.087,5.429,2.962c1.625,0.947,2.699,1.695,3.41,2.19
			c0.142,0.099,0.292,0.204,0.427,0.295c0.211-0.097,0.434-0.19,0.671-0.27c1.589-0.529,3.307-0.329,4.602,0.533
			c0.542,0.362,0.928,0.779,1.337,1.221c0.476,0.513,1.067,1.151,2.212,2.041c2.022,1.577,5.722,3.902,8.082,5.081
			c1.901,0.951,2.497,0.951,3.252,0.951c0.25,0,0.589,0,0.89-0.009c0.011-0.023,0.022-0.047,0.034-0.07
			c0.166-0.331,0.354-0.604,0.52-0.846c0.141-0.205,0.272-0.398,0.314-0.522c0.052-0.155,0.079-0.333,0.136-0.613
			c0.181-0.883,0.516-2.526,1.53-6.081c1.447-5.063,4.378-14.355,6.104-19.53c1.25-3.753,1.863-5.329,2.192-6.176
			c0.104-0.269,0.178-0.453,0.234-0.623c0.109-0.327,0.113-0.494,0.113-1.15c0-0.571,0-1.111-0.221-1.552
			c-0.17-0.342-0.539-0.807-0.835-1.181c-0.348-0.438-0.647-0.816-0.863-1.246c-0.461-0.929-0.345-1.722-0.166-2.226
			c0.415-1.172,1.361-1.604,2.276-2.022c0.306-0.141,0.699-0.319,1.191-0.565c0.591-0.295,1.318-0.683,2.098-1.097
			c1.846-0.98,3.938-2.092,5.426-2.651c3.033-1.135,4.521-0.222,5.682,0.936c0.428,0.429,0.955,0.956,3.56,2.746l-2.832,4.121
			c-2.691-1.851-3.494-2.566-4.202-3.271c-0.111,0.031-0.259,0.078-0.451,0.149c-1.184,0.445-3.208,1.521-4.835,2.385
			c-0.711,0.378-1.38,0.733-1.951,1.023c0.135,0.213,0.263,0.436,0.377,0.665c0.747,1.494,0.747,2.928,0.747,3.785
			c0,0.834,0,1.621-0.369,2.73c-0.077,0.232-0.175,0.486-0.318,0.855c-0.313,0.807-0.897,2.308-2.109,5.944
			c-1.71,5.127-4.61,14.322-6.04,19.322c-0.962,3.369-1.271,4.89-1.438,5.706c-0.097,0.476-0.166,0.818-0.291,1.195
			c-0.266,0.794-0.669,1.382-0.936,1.771c-0.064,0.094-0.129,0.18-0.177,0.268c-0.014,0.032-0.029,0.084-0.047,0.132
			c-0.164,0.469-0.55,1.564-1.788,2.188C341.715,319.429,340.485,319.429,339.184,319.429z"/>
		<path fill="#FFFFFF" d="M370.021,145.576c-1.99,0-5.097-0.533-7.341-1.032c-2.258-0.501-3.956-1.044-5.189-1.661
			c-0.345-0.172-0.639-0.343-0.919-0.508c-0.47-0.276-0.684-0.401-1.123-0.489c-0.348-0.069-0.869-0.122-1.421-0.178
			c-1.056-0.106-2.369-0.238-3.633-0.599c-1.489-0.426-2.765-1.123-3.891-1.739c-0.388-0.212-0.771-0.422-1.154-0.614
			c-1.208-0.604-2.305-0.95-3.009-0.95c-0.417,0-0.875,0.134-1.455,0.304c-0.466,0.137-0.942,0.273-1.455,0.376
			c-1.457,0.292-3.074,0.292-4.374,0.292c-1.447,0-2.944,0-4.303-0.907c-1.061-0.708-1.674-1.728-2.451-3.021l-1.052-1.708
			c-0.738-1.175-1.656-2.637-2.615-4.41l4.396-2.38c0.883,1.63,1.754,3.017,2.453,4.131c0.215,0.343,0.416,0.663,0.601,0.962
			l0.502,0.828c0.366,0.609,0.78,1.299,0.962,1.453c0.158,0.051,0.938,0.051,1.507,0.051c1.079,0,2.421,0,3.394-0.194
			c0.363-0.073,0.699-0.174,1.028-0.271c0.81-0.237,1.728-0.506,2.862-0.506c1.519,0,3.283,0.498,5.245,1.479
			c0.437,0.218,0.874,0.457,1.317,0.699c0.983,0.538,1.911,1.045,2.865,1.318c0.835,0.238,1.856,0.341,2.759,0.432
			c0.678,0.068,1.317,0.132,1.901,0.25c1.264,0.252,2.047,0.712,2.676,1.082c0.19,0.112,0.388,0.23,0.622,0.347
			c0.851,0.425,2.209,0.846,4.037,1.251c2.419,0.538,4.991,0.913,6.257,0.913c0.716,0,0.729-0.01,1.411-0.529l0.244-0.185
			c0.506-0.379,1.136-0.821,1.767-1.262c0.584-0.408,1.168-0.816,1.635-1.166c0.197-0.148,0.373-0.286,0.533-0.411
			c0.82-0.641,1.668-1.304,2.909-1.304c1.172,0,2.02,0.62,2.638,1.073c0.138,0.101,0.286,0.21,0.448,0.318
			c0.496,0.332,0.986,0.551,1.77,0.551c0.444,0,1.055-0.073,1.701-0.15c1.098-0.132,2.465-0.293,3.909-0.21
			c1.412,0.083,2.743,0.381,5.158,0.92c0.844,0.188,1.828,0.409,3.004,0.661l-1.051,4.889c-1.191-0.256-2.188-0.479-3.043-0.67
			c-2.162-0.483-3.354-0.75-4.362-0.809c-1.001-0.058-2.027,0.064-3.021,0.183c-0.799,0.096-1.554,0.186-2.296,0.186
			c-2.205,0-3.65-0.794-4.545-1.393c-0.098-0.065-0.192-0.13-0.284-0.195c-0.144,0.112-0.299,0.232-0.468,0.359
			c-0.506,0.38-1.138,0.822-1.77,1.264c-0.583,0.408-1.166,0.815-1.632,1.164l-0.217,0.164
			C373.307,144.904,372.247,145.576,370.021,145.576z"/>
		<path fill="#FFFFFF" d="M346.384,94.1c-0.784-0.144-1.493-0.543-2.17-1.22c-1.288-1.288-2.888-4.033-3.865-5.991
			c-1.044-2.087-1.565-3.646-2.07-5.154c-0.5-1.5-1.055-3.167-1.33-5.365c-0.127-1.008-0.19-2.082-0.252-3.12
			c-0.029-0.498-0.058-0.981-0.092-1.419c-0.595,0.269-1.311,0.512-2.164,0.634c-2.193,0.311-4.993-0.253-6.729-0.831
			c-1.562-0.52-3.236-1.368-3.82-3.709c-0.129-0.516-0.197-1.043-0.269-1.601c-0.091-0.705-0.185-1.435-0.406-2.098
			c-0.317-0.95-1.012-2.111-2.009-3.357c-0.164-0.205-0.328-0.402-0.487-0.595c-0.878-1.059-1.873-2.258-2.198-3.874
			c-0.321-1.612,0.098-3.181,0.404-4.327l0.109-0.415c0.042-0.168,0.075-0.321,0.106-0.459c0.177-0.8,0.475-2.141,1.926-2.868
			c0.64-0.32,1.313-0.414,1.963-0.505c0.305-0.043,0.643-0.086,0.979-0.17c0.59-0.147,1.296-0.472,1.888-0.867
			c0.524-0.349,0.876-0.701,1.321-1.146c0.427-0.427,0.685-0.683,0.99-1.294c0.388-0.777,0.798-2.018,0.996-3.012
			c0.194-0.972,0.194-1.757,0.194-2.667c0-0.887-0.027-1.146-0.229-1.416c-0.336-0.448-1.203-1.108-1.968-1.691
			c-0.337-0.256-0.673-0.513-0.993-0.769c-0.382-0.306-0.742-0.612-1.086-0.905c-0.625-0.532-1.216-1.034-1.626-1.239
			c-0.291-0.145-0.673-0.216-1.379-0.339c-0.467-0.081-0.986-0.172-1.586-0.311c-0.877-0.203-1.842-0.483-4.132-1.154l1.406-4.798
			c2.19,0.642,3.109,0.909,3.851,1.08c0.498,0.115,0.93,0.189,1.317,0.257c0.883,0.153,1.796,0.312,2.758,0.792
			c0.954,0.477,1.769,1.17,2.631,1.904c0.307,0.261,0.628,0.535,0.97,0.809c0.29,0.232,0.595,0.464,0.899,0.696
			c1.074,0.819,2.186,1.665,2.938,2.67c1.228,1.639,1.228,3.309,1.228,4.414c0,1.026,0,2.189-0.29,3.646
			c-0.284,1.424-0.845,3.1-1.428,4.269c-0.672,1.341-1.398,2.067-1.93,2.597c-0.535,0.536-1.145,1.145-2.08,1.768
			c-0.62,0.415-1.897,1.171-3.45,1.558c-0.473,0.119-0.923,0.189-1.307,0.244c-0.009,0.04-0.02,0.08-0.029,0.121l-0.13,0.494
			c-0.169,0.633-0.425,1.589-0.331,2.054c0.075,0.376,0.618,1.031,1.143,1.664c0.179,0.215,0.361,0.435,0.544,0.664
			c1.38,1.725,2.338,3.373,2.848,4.897c0.375,1.126,0.512,2.188,0.622,3.042c0.05,0.386,0.097,0.751,0.15,0.987
			c0.099,0.048,0.271,0.122,0.56,0.218c1.283,0.427,3.279,0.79,4.441,0.625c0.632-0.09,1.121-0.383,1.638-0.693
			c0.404-0.242,0.822-0.493,1.326-0.66c0.968-0.323,1.959-0.227,2.786,0.271c1.354,0.814,1.747,2.324,1.925,3.389
			c0.148,0.894,0.213,1.982,0.28,3.135c0.057,0.957,0.115,1.946,0.222,2.791c0.214,1.71,0.646,3.007,1.104,4.379
			c0.478,1.429,0.921,2.756,1.809,4.528c0.969,1.941,2.282,4.045,2.93,4.692c0.056,0.053-0.145-0.105-0.465-0.164L346.384,94.1z"/>
		<path fill="#FFFFFF" d="M337.943,108.682c-0.337-0.451-1.245-1.203-2.791-1.977c-0.375-0.188-0.748-0.356-1.137-0.533
			c-1.162-0.529-2.48-1.127-4.23-2.295c-1.518-1.012-3.33-2.437-4.929-3.694c-0.81-0.636-1.573-1.237-2.227-1.727
			c-0.503-0.377-0.938-0.687-1.311-0.951c-1.274-0.906-2.28-1.622-2.717-2.926c-0.391-1.172-0.115-2.245,0.128-3.19
			c0.089-0.345,0.19-0.731,0.264-1.171c0.102-0.61,0.156-1.377,0.214-2.19c0.064-0.895,0.13-1.82,0.271-2.666
			c0.093-0.557,0.214-1.053,0.328-1.508c0.082-0.33,0.195-0.781,0.188-0.925c-0.03-0.052-0.358-0.557-1.251-1.227
			c-0.612-0.458-1.229-0.839-3.589-1.547c-0.773-0.232-1.699-0.489-2.685-0.764c-2.129-0.592-4.541-1.264-6.436-1.953
			c-2.697-0.981-4.607-2.091-6.012-3.495c-0.824-0.825-1.356-1.623-1.826-2.327c-0.189-0.285-0.379-0.571-0.593-0.856
			c-0.345-0.459-0.797-0.967-1.32-1.555c-0.456-0.512-0.96-1.079-1.514-1.743c-0.255-0.306-0.521-0.633-0.795-0.97
			c-0.956-1.178-2.04-2.513-3.012-3.323c-0.927-0.772-1.911-1.181-3.157-1.697c-0.274-0.114-0.555-0.23-0.841-0.353
			c-0.456-0.196-0.929-0.408-1.408-0.624c-1.255-0.563-2.551-1.146-3.637-1.456c-0.772-0.221-1.514-0.323-2.298-0.432
			c-0.716-0.099-1.455-0.201-2.235-0.396c-0.304-0.076-0.609-0.166-0.937-0.263c-0.616-0.183-1.254-0.372-2.161-0.516l0.785-4.938
			c1.229,0.195,2.099,0.454,2.798,0.661c0.253,0.075,0.49,0.146,0.727,0.206c0.521,0.13,1.071,0.206,1.709,0.294
			c0.879,0.122,1.875,0.26,2.986,0.577c1.432,0.409,2.896,1.067,4.312,1.703c0.454,0.204,0.899,0.404,1.329,0.589l0.786,0.33
			c1.441,0.598,2.933,1.216,4.443,2.475c1.346,1.122,2.593,2.658,3.692,4.013c0.261,0.32,0.513,0.631,0.755,0.921
			c0.514,0.617,0.982,1.143,1.406,1.619c0.598,0.671,1.114,1.252,1.586,1.88c0.271,0.363,0.513,0.722,0.753,1.083
			c0.391,0.585,0.728,1.091,1.201,1.565c0.546,0.545,1.575,1.382,4.186,2.331c1.713,0.623,4.026,1.267,6.066,1.835
			c1.021,0.284,1.979,0.551,2.782,0.792c2.535,0.761,3.835,1.35,5.15,2.335c1.712,1.284,2.758,2.651,3.111,4.065
			c0.313,1.254,0.042,2.34-0.197,3.298c-0.084,0.337-0.178,0.705-0.247,1.119c-0.103,0.615-0.16,1.421-0.216,2.2
			c-0.063,0.892-0.129,1.813-0.27,2.656c-0.104,0.626-0.242,1.162-0.353,1.593c-0.022,0.087-0.048,0.186-0.071,0.282
			c0.208,0.156,0.471,0.342,0.715,0.517c0.401,0.285,0.871,0.619,1.413,1.026c0.679,0.509,1.475,1.135,2.317,1.797
			c1.526,1.201,3.256,2.561,4.611,3.464c1.414,0.944,2.488,1.432,3.526,1.903c0.446,0.203,0.875,0.398,1.305,0.614
			c1.436,0.718,3.387,1.892,4.522,3.405c0.094,0.125,0.175,0.241,0.248,0.356L337.943,108.682z"/>
		<path fill="#FFFFFF" d="M318.494,132.773l-4.631-1.887c0.128-0.314,0.273-0.61,0.422-0.904c0.132-0.263,0.245-0.489,0.31-0.684
			c0.237-0.711,0.237-1.967,0.237-2.977c0-1.045,0-1.984,0.158-2.858c-0.087-0.05-0.174-0.104-0.26-0.161
			c-0.991-0.659-1.589-1.597-2.281-2.684c-0.179-0.281-0.375-0.589-0.598-0.924c-0.832-1.248-2.203-3.105-3.329-4.231
			c-1.039-1.039-1.717-1.266-1.938-1.34c-0.238-0.079-0.442-0.116-0.78-0.177c-0.346-0.062-0.729-0.132-1.219-0.254
			c-0.43-0.107-0.946-0.258-1.552-0.435c-0.778-0.228-1.718-0.504-2.819-0.779c-0.631-0.157-1.314-0.315-1.998-0.473
			c-1.438-0.333-2.927-0.676-4.014-1.038c-1.065-0.356-1.729-0.718-2.213-0.983c-0.197-0.108-0.368-0.202-0.457-0.231
			c-0.163-0.055-0.538-0.104-0.87-0.148c-0.48-0.064-1.025-0.136-1.618-0.285c-1.29-0.322-2.57-0.955-3.807-1.881
			c-0.44-0.331-0.881-0.704-1.396-1.143c-0.662-0.565-1.412-1.206-2.489-2.014c-0.67-0.502-1.458-1.063-2.27-1.642
			c-1.587-1.131-3.229-2.301-4.414-3.318c-1.058-0.907-1.707-1.651-2.181-2.194c-0.186-0.213-0.417-0.477-0.503-0.544
			c-0.097-0.039-0.571-0.112-0.919-0.165c-0.341-0.052-0.704-0.108-1.089-0.186c-0.692-0.138-1.417-0.335-2.118-0.527
			c-0.641-0.175-1.246-0.34-1.766-0.444c-0.287-0.058-0.56-0.099-0.812-0.138c-1.032-0.16-2.203-0.341-3.136-1.274
			c-0.857-0.857-1.077-1.95-1.223-2.672c-0.003-0.017-0.007-0.034-0.01-0.051c-0.3,0.22-0.624,0.408-0.968,0.559l-2.01-4.578
			c0.015-0.007,0.033-0.015,0.068-0.073c0.04-0.066,0.069-0.152,0.122-0.31c0.121-0.363,0.324-0.971,0.864-1.51
			c0.574-0.578,1.397-0.913,2.251-0.913c0.001,0,0.002,0,0.003,0c0.854,0.001,1.678,0.337,2.258,0.924
			c0.589,0.587,0.78,1.268,0.896,1.674c0.018,0.062,0.032,0.128,0.059,0.196c0.038,0.065,0.103,0.151,0.166,0.245
			c0.267,0.389,0.67,0.978,0.933,1.769c0.124,0.368,0.197,0.722,0.262,1.038c0.079,0.013,0.158,0.025,0.229,0.036
			c0.32,0.05,0.665,0.104,1.029,0.177c0.688,0.138,1.404,0.333,2.099,0.522c0.646,0.176,1.258,0.343,1.783,0.448
			c0.308,0.062,0.594,0.104,0.862,0.146c0.921,0.14,1.966,0.3,2.948,0.955c0.612,0.408,1.037,0.895,1.486,1.41
			c0.415,0.476,0.886,1.015,1.669,1.687c1.016,0.871,2.563,1.975,4.061,3.042c0.848,0.604,1.669,1.189,2.367,1.713
			c1.204,0.902,2.054,1.628,2.737,2.211c0.424,0.362,0.785,0.673,1.148,0.945c0.698,0.523,1.378,0.871,2.019,1.031
			c0.319,0.08,0.682,0.128,1.065,0.179c0.58,0.077,1.18,0.157,1.793,0.361c0.513,0.171,0.917,0.392,1.274,0.588
			c0.388,0.212,0.755,0.413,1.395,0.626c0.86,0.287,2.231,0.603,3.558,0.909c0.714,0.165,1.427,0.33,2.085,0.494
			c1.178,0.294,2.182,0.588,3.013,0.832c0.53,0.155,0.983,0.289,1.357,0.382c0.357,0.089,0.639,0.138,0.892,0.184
			c0.421,0.075,0.897,0.161,1.479,0.355c1.359,0.454,2.631,1.287,3.891,2.546c1.383,1.383,2.95,3.487,3.954,4.995
			c0.244,0.366,0.459,0.702,0.654,1.009c0.309,0.484,0.693,1.087,0.855,1.223c0.054,0.024,0.32,0.09,0.479,0.129
			c0.518,0.126,1.226,0.3,1.826,0.9c0.663,0.661,1.252,1.834,0.29,3.66c-0.054,0.101-0.124,0.215-0.169,0.35
			c-0.116,0.349-0.116,1.294-0.116,2.128c0,1.371,0,3.077-0.492,4.554c-0.178,0.535-0.404,0.986-0.586,1.349
			C318.664,132.404,318.572,132.582,318.494,132.773z"/>
		<path fill="#FFFFFF" d="M265.782,93.712l-3.771-3.284c0.432-0.495,0.459-0.63,0.592-1.277l0.085-0.402
			c0.257-1.154,0.755-2.705,1.332-4.148c0.521-1.3,1.154-2.653,2.252-3.752c0.74-0.74,1.577-1.251,2.25-1.661
			c0.197-0.121,0.388-0.236,0.563-0.352c0.18-0.12,0.343-0.242,0.498-0.357c0.512-0.379,1.149-0.851,2.036-1.147
			c1.041-0.346,2.548-0.465,3.746-0.017c-0.012-0.056-0.023-0.11-0.037-0.163c-0.149-0.601-0.44-1.15-0.798-1.507
			c-0.358-0.359-0.906-0.65-1.508-0.8c-0.675-0.169-1.462-0.169-2.552-0.169c-1.607,0-3.431,0-4.788-0.906
			c-1.039-0.694-1.46-1.675-1.686-2.311c-0.038-0.015-0.078-0.031-0.12-0.049c-0.33-0.135-0.747-0.306-1.279-0.542l2.035-4.567
			c0.473,0.211,0.844,0.362,1.138,0.482c0.857,0.351,1.598,0.654,2.205,1.46c0.368,0.493,0.544,0.994,0.671,1.365
			c0.503,0.067,1.332,0.067,1.824,0.067c1.282,0,2.492,0,3.763,0.318c1.045,0.26,2.561,0.84,3.835,2.117
			c1.006,1.006,1.737,2.332,2.111,3.831c0.147,0.591,0.22,1.135,0.283,1.615c0.044,0.332,0.094,0.708,0.147,0.87
			c0.041,0.123,0.175,0.317,0.315,0.522c0.165,0.241,0.353,0.514,0.52,0.846c0.508,1.022,0.508,1.959,0.508,2.58
			c0,0.748,0,2-0.967,2.975c-1.229,1.227-3.29,1.225-4.512,0.011c-0.603-0.603-0.794-1.285-0.908-1.693
			c-0.018-0.062-0.032-0.129-0.06-0.197c0,0,0,0,0,0c-0.007,0-0.07-0.063-0.106-0.086c-0.024-0.005-0.092-0.02-0.153-0.037
			c-0.405-0.114-1.085-0.305-1.684-0.899c-0.128-0.128-0.235-0.258-0.326-0.383c-0.013,0.003-0.024,0.007-0.036,0.011
			c-0.131,0.043-0.367,0.219-0.642,0.422c-0.219,0.162-0.447,0.331-0.702,0.5c-0.228,0.152-0.475,0.303-0.731,0.459
			c-0.491,0.3-1,0.611-1.317,0.928c-0.372,0.372-0.705,0.974-1.146,2.076c-0.468,1.17-0.896,2.496-1.093,3.376l-0.067,0.32
			C267.312,91.078,267.076,92.226,265.782,93.712z"/>
		<path fill="#FFFFFF" d="M233.645,232.541l-2.729-4.189c1.132-0.737,2.095-1.067,2.865-1.215c-1.615-0.153-3.146-1.023-4-2.304
			c-0.378-0.568-0.568-1.119-0.721-1.563c-0.063-0.183-0.149-0.434-0.197-0.504c-0.2-0.186-1.009-0.541-1.492-0.753
			c-0.355-0.156-0.697-0.308-0.999-0.458c-1.321-0.661-2.838-1.788-2.838-4.664c0-1.091,0.202-2.468,0.416-3.925
			c0.118-0.799,0.24-1.626,0.328-2.421c0.25-2.248,0.181-3.837,0.033-4.575c-0.082-0.41-0.203-0.645-0.445-1.112
			c-0.183-0.354-0.41-0.793-0.639-1.365c-0.597-1.492-1.113-3.651-1.359-5.129c-0.107-0.645-0.171-1.201-0.227-1.687
			c-0.051-0.446-0.104-0.907-0.165-1.09c-0.042-0.124-0.174-0.317-0.314-0.521c-0.166-0.242-0.354-0.516-0.521-0.851
			c-0.641-1.282-0.384-2.326-0.174-2.834c0.209-0.506,0.761-1.421,2.103-1.869c0.562-0.188,1.165-0.264,1.802-0.344
			c0.52-0.066,1.108-0.14,1.477-0.263c0.201-0.067,0.408-0.174,0.776-0.481l3.211,3.832c-0.811,0.679-1.553,1.109-2.406,1.393
			c-0.406,0.135-0.824,0.231-1.229,0.305c0.006,0.018,0.013,0.036,0.019,0.054c0.226,0.678,0.305,1.371,0.389,2.105
			c0.047,0.413,0.1,0.885,0.191,1.431c0.235,1.411,0.686,3.134,1.07,4.095c0.148,0.372,0.299,0.657,0.437,0.924
			c0.322,0.623,0.687,1.328,0.907,2.429c0.398,1.989,0.191,4.68,0.033,6.107c-0.095,0.852-0.225,1.739-0.35,2.595
			c-0.179,1.216-0.363,2.474-0.363,3.199c0,0.061,0.001,0.112,0.003,0.155c0.021,0.011,0.045,0.023,0.071,0.037
			c0.233,0.116,0.499,0.232,0.774,0.353c1.019,0.447,2.173,0.955,3.034,1.816c0.835,0.835,1.158,1.771,1.371,2.391
			c0.053,0.154,0.126,0.366,0.163,0.431c0.016,0.004,0.178,0.087,0.34,0.087c0.282,0,0.828-0.209,1.227-0.361
			c0.23-0.088,0.449-0.171,0.652-0.238c2.118-0.707,3.354-0.061,4.019,0.605c0.974,0.974,0.974,2.221,0.974,3.223
			c0,0.889,0,2.106-0.372,3.22c-0.422,1.271-1.323,2.33-2.469,2.902c-1.011,0.506-1.915,0.506-3.058,0.506
			C234.773,232.017,234.45,232.017,233.645,232.541z M236.11,226.883c-0.169,0.048-0.344,0.094-0.526,0.133
			c0.198-0.001,0.383-0.003,0.508-0.011C236.099,226.968,236.105,226.927,236.11,226.883z"/>
		<path fill="#FFFFFF" d="M249.455,198.425c-0.558,0-1.142-0.137-1.714-0.423c-0.179-0.089-0.359-0.196-0.547-0.313
			c-0.095-0.059-0.225-0.139-0.27-0.155c-0.198,0.002-0.647,0.08-1.042,0.147c-0.838,0.144-1.986,0.341-3.337,0.341
			c-2.209,0-4.897-0.514-7.191-1.374c-1.489-0.558-2.699-1.228-3.767-1.819c-0.454-0.251-0.892-0.495-1.33-0.714
			c-0.404-0.202-0.809-0.383-1.195-0.557c-1.164-0.524-2.263-1.019-3.098-1.854c-0.704-0.704-1.024-1.451-1.258-1.997
			c-0.069-0.162-0.165-0.383-0.21-0.444c-0.236-0.22-1.272-0.645-2.028-0.956c-0.34-0.14-0.695-0.286-1.062-0.443
			c-1.634-0.701-3.903-1.793-5.434-3.018c-1.332-1.064-2.023-2.162-2.481-2.888c-0.077-0.122-0.149-0.238-0.223-0.347
			c-0.107-0.161-0.304-0.437-0.41-0.473c-0.15-0.05-0.497-0.1-0.776-0.139c-0.504-0.072-1.075-0.154-1.654-0.347
			c-1.469-0.489-2.547-1.569-3.037-3.04c-0.192-0.574-0.273-1.144-0.345-1.647c-0.04-0.279-0.09-0.626-0.14-0.777
			c-0.032-0.096-0.121-0.255-0.207-0.408c-0.259-0.461-0.65-1.159-0.65-2.084c0-0.333,0.051-0.641,0.13-0.919
			c-0.197-0.097-0.395-0.214-0.586-0.357c-0.241-0.181-0.418-0.363-0.537-0.491c-0.058-0.013-0.142-0.029-0.258-0.045l0.659-4.956
			c1.636,0.217,2.461,0.778,3.06,1.384c0.068,0.014,0.138,0.026,0.206,0.04c0.413,0.083,0.927,0.188,1.431,0.439
			c0.776,0.387,1.353,1.042,1.619,1.842c0.202,0.604,0.32,1.569-0.261,2.729c-0.065,0.131-0.141,0.264-0.223,0.396
			c0.123,0.24,0.251,0.522,0.36,0.85c0.192,0.576,0.274,1.146,0.346,1.649c0.033,0.229,0.072,0.504,0.113,0.678
			c0.185,0.044,0.455,0.083,0.68,0.115c0.503,0.072,1.072,0.153,1.65,0.345c1.551,0.517,2.412,1.577,2.989,2.442
			c0.096,0.144,0.192,0.296,0.292,0.456c0.375,0.596,0.7,1.11,1.374,1.649c0.841,0.673,2.401,1.521,4.281,2.327
			c0.342,0.146,0.674,0.283,0.992,0.413c1.473,0.605,2.745,1.127,3.675,2.059c0.705,0.705,1.025,1.452,1.258,1.997
			c0.069,0.162,0.165,0.384,0.21,0.444c0.198,0.185,1.043,0.565,1.602,0.816c0.446,0.201,0.913,0.412,1.379,0.645
			c0.5,0.25,0.999,0.525,1.516,0.812c0.961,0.532,1.955,1.083,3.1,1.512c1.71,0.641,3.843,1.055,5.436,1.055
			c0.925,0,1.757-0.143,2.491-0.269c1.136-0.194,2.264-0.278,3.106-0.069c0.014-0.046,0.029-0.092,0.044-0.139
			c0.43-1.289,1.232-2.091,1.818-2.676c0.377-0.377,0.435-0.436,0.529-0.908c0.066-0.328,0.116-0.806,0.169-1.312
			c0.118-1.125,0.252-2.402,0.69-3.497c0.503-1.257,1.303-2.027,1.887-2.59c0.25-0.241,0.466-0.448,0.619-0.652
			c0.27-0.359,0.556-0.969,0.808-1.508c0.259-0.552,0.504-1.073,0.81-1.533c1.233-1.845,2.914-1.845,4.025-1.845h3.399
			c0.747,0,1.828,0,2.742,0.548c0.111-0.177,0.229-0.351,0.355-0.519c0.693-0.924,1.505-1.524,2.041-1.921
			c0.146-0.108,0.281-0.199,0.384-0.295c0,0-0.001,0-0.001,0c-0.008,0,0.013-0.037,0.033-0.069c0.668-1.082,1.577-1.63,2.702-1.63
			c0.708,0,1.352,0.232,2.033,0.478c0.312,0.112,0.654,0.24,0.999,0.326c0.322,0.081,0.686,0.129,1.07,0.18
			c0.577,0.077,1.175,0.156,1.786,0.359c0.063,0.021,0.126,0.043,0.188,0.066c0.309-0.383,0.683-0.897,0.924-1.229
			c0.164-0.224,0.321-0.44,0.469-0.638c0.689-0.918,1.843-2.457,3.699-2.457c1.052,0,1.866,0.489,2.492,1.016
			c0.247-0.25,0.532-0.509,0.864-0.758c1.41-1.058,3.297-1.634,4.296-1.882c0.122-0.03,0.236-0.058,0.345-0.082
			c0.021-0.072,0.045-0.146,0.07-0.221c0.297-0.891,1.007-2.521,2.441-3.479c0.943-0.628,1.933-0.797,2.728-0.933
			c0.238-0.041,0.483-0.08,0.728-0.141c0.62-0.155,1.36-0.507,2.475-1.175c1.14-0.683,2.517-1.6,3.428-2.284l0.145-0.109
			c0.979-0.741,2.797-2.119,5.655-0.215c1.875,1.25,4.528,4.005,5.855,5.553c1.36,1.587,2.146,2.811,2.592,4.046
			c1.346,0.18,4.132,0.18,6.193,0.18h6.069c1.386,0,3.479,0,5.313,1.987l-3.674,3.392c-0.306-0.331-0.429-0.378-1.64-0.378h-6.069
			c-2.601,0-5.548,0-7.209-0.277c-2.493-0.415-3.224-1.733-3.609-2.969l-0.051-0.16c-0.134-0.402-0.455-1.1-1.712-2.566
			c-1.34-1.563-3.524-3.735-4.732-4.579l-0.126,0.095c-1.052,0.79-2.566,1.8-3.858,2.573c-1.154,0.693-2.42,1.384-3.833,1.737
			c-0.369,0.092-0.737,0.158-1.097,0.219c-0.295,0.051-0.698,0.12-0.819,0.179c-0.038,0.04-0.275,0.363-0.448,0.881
			c-0.063,0.19-0.101,0.361-0.135,0.506c-0.119,0.508-0.3,1.275-0.955,1.929c-0.695,0.695-1.505,0.857-2.155,0.988
			c-0.193,0.039-0.425,0.084-0.702,0.154c-1.031,0.257-2.015,0.661-2.507,1.031c-0.283,0.212-0.529,0.508-0.789,0.821
			c-0.394,0.473-0.839,1.008-1.532,1.356c-1.707,0.854-3.104-0.065-3.894-0.764c-0.087,0.118-0.177,0.241-0.269,0.366
			c-0.97,1.333-1.726,2.322-2.617,2.915c-1.697,1.136-3.266,0.427-3.855,0.159c-0.082-0.037-0.167-0.08-0.261-0.111
			c-0.16-0.053-0.534-0.103-0.865-0.147c-0.482-0.064-1.029-0.137-1.624-0.286c-0.392-0.098-0.768-0.221-1.102-0.337
			c-0.28,0.267-0.575,0.485-0.862,0.697c-0.391,0.289-0.76,0.563-1.015,0.901c-0.265,0.354-0.55,0.962-0.802,1.498
			c-0.261,0.557-0.508,1.083-0.818,1.547c-1.041,1.564-2.336,1.731-3.019,1.687c-1.066-0.066-2.004-0.707-2.508-1.714
			c-0.175-0.348-0.281-0.708-0.356-1.047h-2.994c-0.023,0-0.047,0-0.069,0c-0.078,0.16-0.163,0.341-0.239,0.503
			c-0.337,0.719-0.757,1.613-1.334,2.382c-0.394,0.526-0.813,0.931-1.151,1.256c-0.411,0.396-0.613,0.597-0.712,0.844
			c-0.18,0.451-0.28,1.4-0.36,2.162c-0.063,0.598-0.128,1.216-0.239,1.771c-0.391,1.955-1.297,2.861-1.897,3.461
			c-0.297,0.297-0.553,0.554-0.61,0.724c-0.047,0.14-0.094,0.45-0.132,0.699c-0.086,0.563-0.184,1.203-0.487,1.811
			C251.731,197.793,250.653,198.425,249.455,198.425z"/>
		<path fill="#FFFFFF" d="M167.018,277.978c-1.111,0-2-0.633-2.5-0.988c-0.104-0.074-0.213-0.152-0.331-0.23
			c-0.319-0.213-0.691-0.423-1.063-0.635c-0.479-0.273-0.958-0.55-1.369-0.824c-0.371-0.247-0.694-0.496-0.985-0.723
			c-0.013-0.011-0.027-0.021-0.041-0.032c-0.902,0.555-2.132,1.097-4.542,1.17l-0.152-4.998c1.493-0.045,1.89-0.307,2.241-0.537
			c0.104-0.068,0.202-0.133,0.298-0.19c1.67-0.997,3.091-0.666,3.992-0.214c0.491,0.244,0.891,0.556,1.278,0.857
			c0.202,0.157,0.424,0.333,0.686,0.507c0.326,0.218,0.7,0.43,1.074,0.643c0.336,0.191,0.671,0.385,0.983,0.577
			c0.117-0.143,0.242-0.285,0.378-0.421c0.267-0.268,0.53-0.464,0.756-0.61c0.002-0.016,0.005-0.03,0.007-0.046
			c0.067-0.436,0.15-0.978,0.331-1.521c0.43-1.29,1.233-2.093,1.819-2.678c0.588-0.589,1.256-1.257,2.108-1.683
			c0.484-0.242,0.918-0.351,1.235-0.431c0.081-0.021,0.162-0.035,0.243-0.065c0.046-0.027,0.12-0.081,0.195-0.131
			c0.478-0.318,1.277-0.851,2.357-0.851c1.08,0,1.878,0.531,2.355,0.85c0.045,0.029,0.089,0.061,0.134,0.09
			c0.367-0.621,0.882-1.771,1.338-2.787c0.345-0.769,0.682-1.519,0.979-2.113c0.539-1.078,1.661-3.322,3.936-3.322
			c1.078,0,1.906,0.515,2.538,1.054c0.58-0.646,1.369-1.521,2.391-2.396c1.437-1.23,3.253-2.401,4.712-3.342
			c0.407-0.263,0.785-0.506,1.112-0.724c0.676-0.451,1.127-0.789,1.465-1.042c0.423-0.317,0.789-0.591,1.234-0.813
			c1.012-0.506,1.916-0.506,3.059-0.506h7.771c1.282,0,2.493,0,3.467,0.975c0.496,0.496,0.702,1.049,0.826,1.38
			c0.07,0.189,0.113,0.303,0.215,0.457c0.347,0.521,1.3,1.474,1.869,2.043l1.703,1.703c0.234,0.235,0.575,0.575,0.762,0.714
			c0.139,0.011,0.406,0.011,0.627,0.011h2.429c0.668,0,0.821-0.004,1.154-0.114c0.165-0.055,0.344-0.126,0.53-0.198
			c0.753-0.293,1.689-0.657,2.687-0.657c1.069,0,1.843,0.406,2.356,0.675c0.118,0.062,0.235,0.134,0.375,0.181
			c0.219,0.073,0.633,0.073,0.853-0.001c0.137-0.045,0.254-0.118,0.372-0.179c0.513-0.269,1.288-0.675,2.358-0.675
			c0.554,0,1.046,0.111,1.522,0.218c0.559,0.125,1.192,0.268,2.12,0.268c0.846,0,2.018-0.117,3.151-0.23
			c1.254-0.125,2.552-0.255,3.647-0.255c1.189,0,2.12,0.153,2.842,0.337v-1.237c0-2.293,1.327-3.216,2.439-3.586
			c0.229-0.076,0.508-0.143,0.826-0.211c0.383-0.083,0.744-0.16,1.098-0.338l2.245,4.468c-0.594,0.298-1.146,0.478-1.609,0.6v0.77
			c0,1.252-0.038,2.364-0.505,3.301c-0.305,0.606-1.518,2.486-4.482,1.498c-0.135-0.045-0.277-0.096-0.429-0.151
			c-0.603-0.221-1.226-0.448-2.425-0.448c-0.846,0-2.017,0.117-3.15,0.23c-1.255,0.125-2.552,0.255-3.648,0.255
			c-1.483,0-2.526-0.234-3.216-0.39c-0.115-0.025-0.219-0.052-0.314-0.071c-0.049,0.025-0.098,0.053-0.148,0.079
			c-0.274,0.144-0.65,0.341-1.116,0.496c-1.237,0.41-2.772,0.41-4.007,0c-0.467-0.155-0.843-0.353-1.118-0.496
			c-0.047-0.024-0.093-0.051-0.139-0.074c-0.188,0.061-0.542,0.198-0.772,0.288c-0.268,0.104-0.527,0.204-0.765,0.282
			c-1.112,0.37-1.898,0.37-2.731,0.37h-2.429c-0.886,0-1.802,0-2.815-0.505c-0.851-0.424-1.52-1.094-2.11-1.685l-1.7-1.7
			c-0.837-0.837-1.876-1.875-2.497-2.809c-0.139-0.208-0.253-0.404-0.348-0.585h-7.77c-0.334,0-0.708,0-0.884,0.016
			c-0.111,0.072-0.238,0.176-0.41,0.305c-0.39,0.292-0.911,0.682-1.69,1.202c-0.346,0.23-0.745,0.488-1.176,0.766
			c-1.333,0.859-2.99,1.928-4.168,2.938c-0.788,0.676-1.405,1.362-1.95,1.969c-0.583,0.649-1.088,1.211-1.686,1.611
			c-0.985,0.653-2.454,1.089-4.154-0.183c-0.232,0.484-0.486,1.051-0.745,1.629c-0.546,1.219-1.111,2.479-1.632,3.347
			c-1.291,2.15-2.732,2.427-3.843,2.427c-0.623,0-1.563,0-2.579-0.511c-0.109-0.054-0.222-0.117-0.334-0.185
			c-0.114,0.068-0.228,0.132-0.34,0.188c-0.483,0.242-0.919,0.353-1.238,0.432c-0.08,0.021-0.162,0.036-0.243,0.066
			c-0.127,0.078-0.536,0.488-0.781,0.732c-0.286,0.286-0.555,0.555-0.611,0.723c-0.046,0.139-0.093,0.448-0.131,0.696
			c-0.087,0.566-0.185,1.209-0.491,1.819c-0.478,0.955-1.239,1.383-1.605,1.589c-0.041,0.022-0.084,0.045-0.128,0.074
			c-0.055,0.069-0.157,0.228-0.266,0.381c-0.419,0.587-0.941,1.316-1.783,1.74C167.911,277.883,167.447,277.978,167.018,277.978z"/>
		<path fill="#FFFFFF" d="M212.332,428.369l-3.586-3.484c0.742-0.764,1.092-1.199,1.386-1.728c0.49-0.884,0.945-2.246,1.384-3.564
			c0.458-1.373,0.926-2.774,1.141-3.846c0.099-0.494,0.149-0.944,0.199-1.37c0.071-0.604,0.144-1.229,0.312-1.9
			c0.156-0.625,0.376-1.213,0.571-1.731c0.162-0.431,0.314-0.837,0.401-1.185c0.161-0.647,0.104-1.118,0.052-1.276
			c-0.055-0.165-0.324-0.434-0.609-0.718c-0.588-0.589-1.389-1.391-1.818-2.675c-0.372-1.117-0.372-2.311-0.372-3.465v-22.096
			c0-4.408,0-5.202,0.506-6.216c0.685-1.368,1.897-1.7,2.547-1.879c0.109-0.03,0.229-0.062,0.358-0.104
			c0.222-0.074,0.475-0.18,0.745-0.289c0.591-0.24,1.326-0.539,2.108-0.734c1.268-0.319,2.417-0.319,4.006-0.319
			c1.03,0,2.904,0,3.661-0.146c0.012-0.013,0.025-0.026,0.038-0.041c0.228-0.241,0.572-0.605,1.113-1.012
			c0.339-0.254,0.776-0.535,1.255-0.839c0.743-0.471,1.76-1.115,2.176-1.636c0.332-0.416,0.434-1.018,0.552-1.715
			c0.06-0.352,0.118-0.681,0.191-0.974c0.548-2.198,1.986-3.098,3.096-3.465c1.107-0.371,2.325-0.371,3.213-0.371
			c0.834,0,1.623,0,2.738,0.374c0.144,0.048,0.306,0.106,0.476,0.169c0.256,0.095,0.683,0.252,0.843,0.252c0.001,0,0.002,0,0.004,0
			c0.153-0.061,0.68-0.473,0.994-0.72c0.301-0.235,0.587-0.455,0.845-0.627c1.249-0.835,2.247-0.905,3.084-0.905
			c0.749,0,2.002,0,2.977,0.969c0.504,0.511,0.708,1.061,0.831,1.389c0.071,0.189,0.113,0.305,0.216,0.459
			c0.289,0.433,0.95,1.075,1.467,1.334c0.019,0.01,0.038,0.019,0.057,0.027c0.123-0.168,0.272-0.349,0.456-0.531
			c1.036-1.035,2.683-1.704,4.195-1.704c1.435,0,2.879,0.562,4.416,1.718c0.779,0.584,1.529,1.274,2.172,1.9
			c0.531-0.6,1.158-1.229,1.807-1.878c1.132-1.132,2.265-2.265,3.6-2.932c1.812-0.908,3.746-0.864,5.049,0.115
			c0.156,0.117,0.302,0.249,0.46,0.408c0.315,0.314,1.436,0.711,2.32,0.987l-1.494,4.771c-2.342-0.732-3.343-1.328-3.976-1.865
			c-0.038,0.015-0.078,0.032-0.121,0.054c-0.612,0.306-1.491,1.185-2.267,1.96c-0.848,0.85-1.771,1.775-2.114,2.29
			c-0.093,0.139-0.146,0.262-0.211,0.417c-0.673,1.58-1.785,1.911-2.6,1.911c-1.276,0-2.048-0.771-3.216-1.939
			c-0.671-0.671-1.578-1.577-2.41-2.201c-0.885-0.665-1.307-0.717-1.415-0.717c-0.239,0-0.571,0.162-0.671,0.25
			c0.03-0.023,0.006,0.023-0.017,0.063c-0.207,0.367-0.636,1.133-1.601,1.61c-1.274,0.645-3.064,0.553-4.656-0.244
			c-1.513-0.758-2.771-2.106-3.39-3.031c-0.105-0.159-0.197-0.311-0.276-0.454c-0.138,0.099-0.282,0.214-0.434,0.333
			c-0.762,0.597-1.71,1.339-2.914,1.642c-1.553,0.388-2.921-0.117-3.739-0.42c-0.114-0.042-0.224-0.083-0.327-0.117
			c-0.339-0.113-0.491-0.117-1.157-0.117c-0.389,0-1.066,0-1.465,0.073c-0.042,0.174-0.072,0.365-0.106,0.569
			c-0.173,1.026-0.436,2.577-1.576,4.003c-0.938,1.175-2.306,2.042-3.406,2.738c-0.354,0.225-0.682,0.428-0.931,0.614
			c-0.199,0.149-0.315,0.273-0.477,0.444c-0.418,0.443-1.05,1.113-2.363,1.439c-1.173,0.292-2.873,0.315-4.973,0.315
			c-1.321,0-2.119,0-2.789,0.169c-0.443,0.11-0.951,0.317-1.442,0.517c-0.366,0.148-0.71,0.286-1.017,0.391
			c-0.022,0.757-0.022,1.974-0.022,3.466v22.096c0,0.648,0,1.537,0.115,1.883c0.055,0.165,0.312,0.422,0.609,0.72
			c0.584,0.584,1.385,1.384,1.817,2.671c0.396,1.191,0.414,2.635,0.056,4.073c-0.157,0.625-0.376,1.211-0.57,1.728
			c-0.162,0.432-0.315,0.84-0.402,1.188c-0.09,0.36-0.139,0.781-0.196,1.27c-0.061,0.517-0.129,1.102-0.262,1.769
			c-0.276,1.379-0.794,2.931-1.295,4.431c-0.517,1.551-1.046,3.138-1.764,4.43C213.904,426.659,213.229,427.446,212.332,428.369z"/>
		<path fill="#FFFFFF" d="M225.55,317.911c-0.747,0-1.495-0.148-2.091-0.446c-1.364-0.681-1.697-1.892-1.876-2.542
			c-0.03-0.108-0.062-0.228-0.105-0.357c-0.185-0.556-0.631-1.45-1.062-2.314l-1.716-3.43c-0.655-1.313-1.643-3.292-2.335-4.442
			c-0.22-0.367-0.415-0.658-0.577-0.901c-0.489-0.734-0.995-1.494-0.995-2.574c0-1.524,1.026-2.549,1.706-3.227
			c0.103-0.103,0.234-0.234,0.36-0.364c-0.064-0.048-0.138-0.101-0.223-0.157c-0.173-0.115-0.363-0.23-0.56-0.351
			c-0.673-0.41-1.511-0.922-2.25-1.66c-0.447-0.446-0.797-0.915-1.135-1.368c-0.364-0.487-0.739-0.991-1.295-1.548
			c-0.563-0.563-1.354-1.227-2.119-1.869c-0.757-0.635-1.472-1.235-2.008-1.771c-0.31-0.31-0.555-0.594-0.752-0.85
			c-0.038,0.016-0.076,0.031-0.115,0.047c-0.589,0.24-1.322,0.538-2.104,0.732c-0.548,0.138-1.07,0.211-1.49,0.271
			c-0.113,0.016-0.222,0.028-0.322,0.043c-0.427,0.416-1.187,0.976-2.433,0.976c-0.767,0-1.611-0.216-2.588-0.466
			c-0.433-0.11-0.881-0.227-1.299-0.31c-0.976-0.196-1.761-0.196-2.669-0.196c-0.864,0-1.373,0.011-1.796,0.222
			c-0.302,0.151-0.728,0.478-1.18,0.823c-0.524,0.4-1.117,0.854-1.809,1.27c-0.457,0.274-0.945,0.521-1.456,0.777
			c-0.828,0.414-1.61,0.806-2.359,1.429c-0.748,0.623-1.568,1.561-2.362,2.467c-0.553,0.631-1.074,1.228-1.596,1.749
			c-0.545,0.546-1.035,0.955-1.429,1.283c-0.066,0.055-0.141,0.117-0.213,0.179c0.04,0.111,0.082,0.223,0.114,0.311
			c0.068,0.181,0.133,0.355,0.188,0.521c0.706,2.125,0.06,3.36-0.606,4.023c-1.019,1.02-2.629,1.203-4.102,0.462
			c-0.377-0.187-0.706-0.42-0.98-0.624c-0.057,0.074-0.12,0.161-0.189,0.266c-0.213,0.319-0.425,0.695-0.64,1.07
			c-0.271,0.474-0.543,0.946-0.814,1.354c-0.386,0.579-1.554,2.329-3.782,2.329c-1.079,0-2.086-0.421-3.154-0.867
			c-0.22-0.092-0.45-0.188-0.689-0.284c-0.489-0.194-1.025-0.392-1.584-0.598c-0.825-0.305-1.698-0.627-2.572-0.989l-0.139-0.059
			c-0.931-0.39-1.734-0.728-4.545-0.241l-0.851-4.928c3.929-0.677,5.645-0.148,7.329,0.559l0.125,0.052
			c0.806,0.335,1.617,0.633,2.382,0.915c0.602,0.222,1.178,0.435,1.709,0.646c0.269,0.107,0.521,0.213,0.763,0.313
			c0.27,0.112,0.598,0.25,0.866,0.351c0.204-0.311,0.409-0.673,0.615-1.033c0.273-0.478,0.548-0.954,0.821-1.364
			c0.74-1.108,1.53-1.861,2.418-2.307c0.708-0.354,1.457-0.5,2.199-0.431c0.015-0.337,0.073-0.684,0.19-1.036
			c0.375-1.126,1.17-1.788,1.939-2.43c0.349-0.29,0.709-0.591,1.094-0.976c0.405-0.406,0.875-0.942,1.371-1.51
			c0.878-1.002,1.873-2.139,2.924-3.015c1.194-0.994,2.374-1.584,3.321-2.059c0.392-0.195,0.769-0.382,1.121-0.593
			c0.451-0.271,0.884-0.603,1.343-0.953c0.617-0.473,1.255-0.96,1.981-1.324c1.501-0.75,2.905-0.75,4.033-0.75
			c1.027,0,2.191,0,3.649,0.293c0.497,0.099,1.038,0.235,1.558,0.369c0.255,0.065,0.582,0.148,0.862,0.213
			c0.165-0.128,0.359-0.256,0.587-0.369c0.63-0.317,1.304-0.412,1.955-0.504c0.304-0.043,0.641-0.086,0.977-0.171
			c0.442-0.109,0.946-0.314,1.433-0.513c0.383-0.155,0.742-0.299,1.061-0.404c2.116-0.71,3.354-0.059,4.018,0.612
			c0.358,0.355,0.552,0.743,0.668,0.975c0.096,0.191,0.179,0.356,0.539,0.716c0.383,0.383,1.017,0.915,1.688,1.479
			c0.847,0.711,1.723,1.446,2.441,2.164c0.812,0.813,1.341,1.521,1.766,2.092c0.263,0.353,0.47,0.631,0.661,0.821
			c0.318,0.318,0.828,0.629,1.321,0.93c0.255,0.156,0.501,0.307,0.727,0.457c1.107,0.737,1.861,1.529,2.307,2.42
			c0.597,1.193,0.596,2.506-0.001,3.697c-0.388,0.775-0.979,1.399-1.528,1.95c0.142,0.217,0.298,0.462,0.466,0.742
			c0.792,1.316,1.833,3.402,2.521,4.783l1.699,3.395c0.42,0.842,0.812,1.628,1.106,2.349c0.083-0.047,0.165-0.087,0.246-0.121
			c0.135-0.396,0.338-0.82,0.645-1.28c0.554-0.832,1.821-2.249,2.9-2.791c0.938-0.468,1.943-0.439,2.767,0.073
			c1.341,0.831,1.341,2.326,1.341,2.89v0.329c1.066,0.074,2.729,0.083,4.697,0.085l-0.006,5c-3.603-0.004-5.432-0.035-6.635-0.3
			c-0.366-0.081-0.81-0.22-1.245-0.455c-0.591,1.575-1.968,1.727-2.468,1.727c-0.187,0-0.362-0.019-0.525-0.051
			c-0.019,0.01-0.039,0.021-0.058,0.03C227.042,317.763,226.296,317.911,225.55,317.911z"/>
	</g>
</g>
</svg>
